<svg width="526" height="386" viewBox="0 0 526 386" fill="none" xmlns="http://www.w3.org/2000/svg">
<path opacity="0.18" d="M192.036 28.1598C179.563 40.8771 170.318 57.2243 157.064 68.9212C134.653 88.7368 104.236 92.6767 77.8804 105.291C60.4471 113.635 43.9178 126.857 36.2049 145.981C29.9771 161.482 30.7636 179.754 37.238 195.068C40.3314 202.41 41.706 210.487 41.2364 218.563C40.7668 226.639 38.4681 234.458 34.5496 241.306C24.9525 258.035 19.1649 277.146 20.0982 296.775C21.5422 326.963 42.3741 356.745 69.7331 359.522C79.1248 360.478 88.5634 358.379 97.8612 356.506C154.017 345.203 213.455 342.296 266.87 364.43C281.509 370.502 295.603 378.414 310.823 382.405C328.603 387.069 347.139 386.184 365.412 385.273C393.928 383.852 427.198 379.46 441.76 352.436C461.947 314.975 429.792 268.207 434.365 224.959C436.894 201.062 450.589 180.045 453.477 156.218C456.611 130.319 445.453 102.94 425.789 88.2911C398.483 67.9524 360.722 72.8869 332.53 54.0595C310.224 39.1591 294.892 10.0428 268.596 2.1179C242.804 -5.64557 210.808 9.04173 192.036 28.1598Z" fill="#00D1FF"/>
<path opacity="0.11" d="M59.142 288.329C56.0847 267.487 48.7928 247.419 45.8396 226.557C42.8864 205.695 44.9419 182.753 58.4004 166.49C67.1819 155.878 79.8013 149.257 92.1409 143.05C103.115 137.528 114.413 132.025 126.617 130.527C137.376 129.235 148.232 131.076 158.991 132.355C179.234 134.757 199.848 135.074 219.941 131.651C246.175 127.129 270.978 116.795 296.62 109.8C321.735 102.915 346.597 99.4081 374.678 112.384C394.089 121.362 408.412 140.105 413.057 160.825C420.563 194.301 403.612 231.401 417.864 262.636C421.884 271.433 428.128 279.016 433.228 287.244C439.497 297.389 444.021 308.5 446.615 320.12C447.506 324.118 448.163 328.335 447.025 332.269C444.098 342.345 431.556 345.697 421.006 346.524C385.925 349.275 350.877 342.777 315.888 338.999C259.087 332.876 201.773 333.955 144.876 338.172C130.951 339.206 117.035 340.411 103.128 341.789C91.9068 342.881 70.6035 349.54 60.0266 346.368C48.2334 342.823 55.9741 335.143 58.472 324.118C61.1454 312.414 60.8722 300.11 59.142 288.329Z" fill="#42FF00"/>
<path d="M249.786 88.6024C249.786 88.6024 244.406 110.317 236.366 116.375C228.066 122.628 219.453 110.614 219.453 110.614L214.659 119.217C214.659 119.217 223.526 133.427 232.463 133.756C241.401 134.086 249.246 126.141 249.246 126.141L249.786 88.6024Z" fill="#1D59B1"/>
<path d="M203.842 73.689L205.058 73.1529L229.855 79.4115L237.303 129.274H236.372L203.842 73.689Z" fill="#3F3D56"/>
<path opacity="0.05" d="M86.5467 342.739C86.5467 342.739 32.4591 346.336 24.6793 351.484C16.8995 356.632 77.8237 357.762 175.038 354.862C272.253 351.962 347.104 354.862 400.106 360.171C453.107 365.48 524.998 364.453 525.993 351.452C526.989 338.45 394.759 338.295 394.759 338.295L86.5467 342.739Z" fill="#000405"/>
<path d="M422.814 239.242C422.814 239.242 420.999 254.24 409.329 255.712H358.071L350.779 172.451H404.77C409.128 172.451 418.059 177.114 419.841 183.715C420.081 184.937 420.239 186.174 420.316 187.416C421.513 200.224 422.814 239.242 422.814 239.242Z" fill="#FF9900"/>
<path d="M492.533 80.6452H443.096L428.421 66.3388L427.771 65.6929H477.012C481.37 65.6929 490.301 70.3562 492.084 76.9572C492.311 78.1759 492.461 79.4077 492.533 80.6452Z" fill="url(#paint0_linear_160_603)"/>
<path d="M93.1622 180.202L88.3356 178.116C87.7075 177.844 87.1927 177.366 86.8779 176.762C86.563 176.158 86.4675 175.465 86.6072 174.799C86.747 174.133 87.1136 173.536 87.6452 173.107C88.1768 172.678 88.841 172.444 89.526 172.445H350.779C354.007 172.415 357.199 173.108 360.119 174.472C363.04 175.836 365.612 177.837 367.646 180.324C369.343 182.367 370.465 184.818 370.899 187.429C372.076 195.225 371.354 229.179 371.029 241.929C370.853 248.853 365.715 254.847 358.793 255.673L358.052 255.744H105.014L93.1622 180.202Z" fill="#FF8A00"/>
<path d="M93.1622 180.202L88.3356 178.116C87.7075 177.844 87.1927 177.366 86.8779 176.762C86.563 176.158 86.4675 175.465 86.6072 174.799C86.747 174.133 87.1136 173.536 87.6452 173.107C88.1768 172.678 88.841 172.444 89.526 172.445H350.779C354.007 172.415 357.199 173.108 360.119 174.472C363.04 175.836 365.612 177.837 367.646 180.324C369.343 182.367 370.465 184.818 370.899 187.429C372.076 195.225 371.354 229.179 371.029 241.929C370.853 248.853 365.715 254.847 358.793 255.673L358.052 255.744H105.014L93.1622 180.202Z" fill="#FF8A00"/>
<path d="M371.048 241.897C370.873 248.82 365.734 254.814 358.813 255.641L358.071 255.712H105.034L93.1622 180.202L88.3356 178.116C87.7075 177.844 87.1927 177.366 86.8779 176.762C86.563 176.158 86.4675 175.465 86.6072 174.799C86.747 174.133 87.1136 173.536 87.6452 173.107C88.1768 172.678 88.841 172.444 89.526 172.445H350.779C354.007 172.415 357.199 173.108 360.119 174.472C363.04 175.836 365.612 177.837 367.646 180.324C369.342 182.367 370.465 184.818 370.899 187.429C372.076 195.193 371.374 229.147 371.048 241.897Z" fill="url(#paint1_linear_160_603)"/>
<path opacity="0.61" d="M80.0614 255.77H358.988C359.953 255.77 360.879 255.39 361.562 254.713C362.245 254.036 362.629 253.118 362.631 252.16C362.631 251.685 362.537 251.214 362.354 250.776C362.171 250.337 361.902 249.938 361.564 249.602C361.226 249.266 360.824 249 360.382 248.818C359.94 248.636 359.467 248.543 358.988 248.543H80.0614C79.0953 248.543 78.1688 248.924 77.4856 249.602C76.8025 250.281 76.4187 251.201 76.4187 252.16C76.4204 253.118 76.805 254.036 77.4879 254.713C78.1709 255.39 79.0964 255.77 80.0614 255.77Z" fill="url(#paint2_linear_160_603)"/>
<path d="M80.0614 255.77H358.988C359.953 255.77 360.879 255.39 361.562 254.713C362.245 254.036 362.629 253.118 362.631 252.16C362.631 251.685 362.537 251.214 362.354 250.776C362.171 250.337 361.902 249.938 361.564 249.602C361.226 249.266 360.824 249 360.382 248.818C359.94 248.636 359.467 248.543 358.988 248.543H80.0614C79.0953 248.543 78.1688 248.924 77.4856 249.602C76.8025 250.281 76.4187 251.201 76.4187 252.16C76.4204 253.118 76.805 254.036 77.4879 254.713C78.1709 255.39 79.0964 255.77 80.0614 255.77Z" fill="#FF8A00"/>
<path d="M416.225 279.468V324.647C416.225 330.541 413.867 336.194 409.671 340.363C405.475 344.532 399.784 346.875 393.848 346.879H99.5629C96.6278 346.883 93.7206 346.313 91.0073 345.202C88.2939 344.091 85.8276 342.459 83.7492 340.402C81.6707 338.344 80.0208 335.9 78.8936 333.209C77.7664 330.518 77.1841 327.633 77.1798 324.719V279.468C77.1745 275.362 78.3234 271.335 80.4973 267.842C80.972 267.068 81.4978 266.325 82.0715 265.62C84.165 263.009 86.8252 260.9 89.8539 259.452C92.8825 258.004 96.2014 257.253 99.5629 257.256H393.841C399.777 257.259 405.468 259.602 409.665 263.769C413.862 267.936 416.221 273.587 416.225 279.481V279.468Z" fill="#FF8A00"/>
<path d="M301.629 346.879H99.5629C95.2749 346.883 91.0758 345.664 87.4652 343.367C83.8546 341.071 80.9845 337.792 79.1963 333.922H288.775C288.775 333.922 291.794 344.902 301.629 346.879Z" fill="url(#paint3_linear_160_603)"/>
<path d="M301.629 257.23C292.34 258.754 289.745 267.816 289.745 267.816H80.4973L82.0715 265.594C84.165 262.983 86.8253 260.874 89.8539 259.426C92.8826 257.978 96.2014 257.227 99.563 257.23H301.629Z" fill="url(#paint4_linear_160_603)"/>
<path d="M416.224 279.468V324.647C416.228 328.624 415.155 332.528 413.12 335.952C411.084 339.377 408.16 342.196 404.652 344.114H312.232C310.387 344.115 308.559 343.755 306.854 343.055C305.149 342.355 303.6 341.328 302.295 340.033C300.989 338.738 299.954 337.2 299.247 335.508C298.54 333.816 298.176 332.002 298.175 330.17V275.347C298.174 273.514 298.537 271.699 299.243 270.005C299.949 268.311 300.985 266.772 302.29 265.476C303.596 264.179 305.146 263.151 306.851 262.45C308.557 261.749 310.386 261.389 312.232 261.39H406.877C409.772 263.447 412.13 266.16 413.756 269.305C415.381 272.449 416.228 275.933 416.224 279.468Z" fill="url(#paint5_linear_160_603)"/>
<path d="M416.225 279.468V324.647C416.225 325.48 416.179 326.313 416.088 327.141C416.049 327.502 415.997 327.857 415.938 328.213C415.697 329.761 415.282 331.277 414.702 332.734C414.566 333.102 414.416 333.457 414.247 333.813C413.518 335.421 412.601 336.939 411.515 338.334C411.229 338.695 410.93 339.057 410.611 339.406C408.913 341.315 406.898 342.921 404.652 344.153H325.508C323.509 344.157 321.532 343.735 319.711 342.916C317.89 342.097 316.267 340.9 314.951 339.406C314.645 339.064 314.358 338.707 314.092 338.334C313.098 336.972 312.368 335.439 311.939 333.813C311.842 333.464 311.764 333.102 311.698 332.734C311.537 331.893 311.456 331.039 311.458 330.183V275.347C311.458 274.37 311.562 273.396 311.77 272.441C311.836 272.078 311.925 271.72 312.037 271.368C312.519 269.732 313.305 268.199 314.352 266.847C314.639 266.474 314.945 266.116 315.27 265.775C316.58 264.382 318.165 263.272 319.927 262.514C321.688 261.756 323.588 261.367 325.508 261.37H406.877C408.62 262.61 410.173 264.094 411.489 265.775C411.762 266.124 412.029 266.479 412.283 266.847C413.263 268.254 414.071 269.772 414.689 271.368C414.833 271.724 414.969 272.085 415.08 272.441C415.581 273.906 415.917 275.423 416.081 276.962C416.127 277.317 416.16 277.679 416.179 278.04C416.199 278.402 416.225 279.022 416.225 279.468Z" fill="#FF8A00"/>
<path d="M416.225 279.468V324.647C416.225 325.48 416.179 326.313 416.088 327.141C416.049 327.502 415.997 327.857 415.938 328.213C415.697 329.761 415.282 331.277 414.702 332.734C414.566 333.102 414.416 333.457 414.247 333.813C413.518 335.421 412.601 336.939 411.515 338.334C411.229 338.695 410.93 339.057 410.611 339.406C408.913 341.315 406.898 342.921 404.652 344.153H325.508C323.509 344.157 321.532 343.735 319.711 342.916C317.89 342.097 316.267 340.9 314.951 339.406C314.645 339.064 314.358 338.707 314.092 338.334C313.098 336.972 312.368 335.439 311.939 333.813C311.842 333.464 311.764 333.102 311.698 332.734C311.537 331.893 311.456 331.039 311.458 330.183V275.347C311.458 274.37 311.562 273.396 311.77 272.441C311.836 272.078 311.925 271.72 312.037 271.368C312.519 269.732 313.305 268.199 314.352 266.847C314.639 266.474 314.945 266.116 315.27 265.775C316.58 264.382 318.165 263.272 319.927 262.514C321.688 261.756 323.588 261.367 325.508 261.37H406.877C408.62 262.61 410.173 264.094 411.489 265.775C411.762 266.124 412.029 266.479 412.283 266.847C413.263 268.254 414.071 269.772 414.689 271.368C414.833 271.724 414.969 272.085 415.08 272.441C415.581 273.906 415.917 275.423 416.081 276.962C416.127 277.317 416.16 277.679 416.179 278.04C416.199 278.402 416.225 279.022 416.225 279.468Z" fill="url(#paint6_linear_160_603)"/>
<path d="M412.283 266.867H314.352C314.639 266.493 314.945 266.135 315.27 265.794H411.483C411.756 266.143 412.029 266.498 412.283 266.867Z" fill="white"/>
<path d="M415.08 272.441H311.77C311.836 272.078 311.925 271.72 312.037 271.368H414.689C414.833 271.724 414.969 272.085 415.08 272.441Z" fill="white"/>
<path d="M416.179 278.021H311.451V276.942H416.081C416.127 277.298 416.159 277.659 416.179 278.021Z" fill="white"/>
<path d="M416.231 282.523H311.458V283.595H416.231V282.523Z" fill="white"/>
<path d="M416.231 288.097H311.458V289.169H416.231V288.097Z" fill="white"/>
<path d="M416.231 293.677H311.458V294.749H416.231V293.677Z" fill="white"/>
<path d="M416.231 299.258H311.458V300.323H416.231V299.258Z" fill="white"/>
<path d="M416.231 304.832H311.458V305.897H416.231V304.832Z" fill="white"/>
<path d="M416.231 310.412H311.458V311.478H416.231V310.412Z" fill="white"/>
<path d="M416.231 315.986H311.458V317.052H416.231V315.986Z" fill="white"/>
<path d="M416.231 321.567H311.458V322.639H416.231V321.567Z" fill="white"/>
<path d="M416.088 327.141C416.049 327.502 415.997 327.858 415.938 328.213H311.458V327.141H416.088Z" fill="white"/>
<path d="M414.735 332.715C414.598 333.083 414.449 333.438 414.28 333.793H311.959C311.861 333.444 311.783 333.083 311.718 332.715H414.735Z" fill="white"/>
<path d="M411.515 338.295C411.229 338.657 410.93 339.018 410.611 339.367H314.951C314.645 339.026 314.358 338.668 314.092 338.295H411.515Z" fill="white"/>
<path d="M286.382 246.812H353.056C350.228 248.212 347.11 248.938 343.949 248.93H96.0373C91.9413 248.967 87.934 247.746 84.5628 245.436C83.6079 244.783 82.721 244.036 81.9153 243.208C81.6551 242.943 81.4014 242.665 81.1607 242.388C80.2531 241.334 79.4797 240.173 78.858 238.932C78.7214 238.661 78.5913 238.383 78.4742 238.112C77.9915 237.005 77.6422 235.845 77.4335 234.656C77.3879 234.385 77.3424 234.114 77.3099 233.83C77.232 233.187 77.1929 232.54 77.1928 231.892V197.234C77.1863 196.865 77.1993 196.497 77.2318 196.129C77.2708 195.768 77.2773 195.58 77.3099 195.309C77.4552 194.129 77.7368 192.97 78.149 191.854C78.2531 191.576 78.3637 191.305 78.4807 191.027C79.0086 189.797 79.6905 188.638 80.5102 187.578L81.1607 186.751C81.6411 186.194 82.156 185.668 82.7024 185.175C86.3698 181.928 91.1241 180.155 96.0373 180.202H343.949C347.846 180.196 351.659 181.318 354.923 183.431H286.382C285.338 183.43 284.298 183.556 283.285 183.806C281.205 184.296 279.296 185.331 277.756 186.803C277.482 187.063 277.223 187.339 276.982 187.629C276.111 188.641 275.448 189.813 275.031 191.079C274.939 191.35 274.863 191.626 274.803 191.905C274.629 192.635 274.541 193.383 274.543 194.134V236.161C274.545 236.812 274.612 237.461 274.744 238.099C274.798 238.376 274.867 238.65 274.953 238.919C275.321 240.178 275.935 241.352 276.761 242.375C276.988 242.66 277.229 242.934 277.483 243.195C278.599 244.344 279.944 245.25 281.431 245.856C282.999 246.504 284.683 246.829 286.382 246.812Z" fill="#FF8A00"/>
<path d="M362.8 197.486V232.551C362.807 232.75 362.794 232.949 362.761 233.145C362.722 233.339 362.761 233.539 362.709 233.733C362.671 233.909 362.647 234.088 362.638 234.269C362.638 234.443 362.592 234.547 362.566 234.682C362.56 234.752 362.547 234.821 362.527 234.889C362.495 235.076 362.456 235.27 362.41 235.457C362.365 235.645 362.352 235.703 362.313 235.825C362.273 235.948 362.254 236.064 362.215 236.187C362.176 236.31 362.143 236.445 362.104 236.575L361.968 236.969C361.953 237.08 361.918 237.187 361.864 237.285C361.825 237.388 361.76 237.563 361.701 237.698L361.525 238.118C361.497 238.197 361.463 238.272 361.421 238.344C361.38 238.453 361.333 238.558 361.278 238.661C361.239 238.751 361.187 238.842 361.142 238.932C361.096 239.023 361.005 239.21 360.927 239.339C360.849 239.468 360.706 239.759 360.582 239.985L360.381 240.308C360.198 240.605 360.01 240.889 359.808 241.167C359.704 241.315 359.6 241.451 359.496 241.587C359.288 241.864 359.067 242.129 358.845 242.394C358.624 242.659 358.351 242.949 358.084 243.214C357.551 243.755 356.984 244.262 356.387 244.732C356.377 244.75 356.361 244.764 356.341 244.771C356.146 244.926 355.951 245.068 355.749 245.217L355.099 245.662L354.448 246.076C354.24 246.205 354.032 246.321 353.798 246.444L353.05 246.838H286.382C284.682 246.845 282.999 246.513 281.431 245.862C279.947 245.257 278.603 244.356 277.483 243.214C277.229 242.953 276.988 242.679 276.761 242.394C275.936 241.378 275.321 240.21 274.953 238.958C274.867 238.691 274.797 238.419 274.745 238.144C274.612 237.507 274.545 236.857 274.543 236.206V194.34C274.541 193.594 274.628 192.85 274.803 192.125C274.863 191.847 274.939 191.573 275.031 191.305C275.448 190.045 276.111 188.88 276.982 187.875C277.223 187.584 277.482 187.308 277.756 187.048C279.302 185.587 281.21 184.558 283.285 184.064C284.299 183.819 285.338 183.696 286.382 183.696H354.923C355.222 183.89 355.521 184.09 355.808 184.303L356.139 184.549C356.592 184.883 357.026 185.241 357.44 185.621L357.798 185.957L358.058 186.215L358.41 186.577L358.761 186.964L358.832 187.048L358.884 187.113C359.093 187.358 359.301 187.617 359.496 187.875C359.6 188.004 359.698 188.14 359.795 188.269C359.802 188.29 359.816 188.308 359.834 188.321C360.012 188.57 360.181 188.822 360.342 189.076L360.621 189.528C360.79 189.813 360.953 190.11 361.103 190.4C361.174 190.555 361.252 190.697 361.324 190.846C361.395 190.995 361.467 191.156 361.525 191.305C361.584 191.453 361.649 191.576 361.701 191.718C361.753 191.86 361.812 191.989 361.857 192.125L362 192.532C362.197 193.091 362.356 193.663 362.475 194.243C362.497 194.317 362.512 194.393 362.521 194.469C362.534 194.607 362.56 194.743 362.599 194.876C362.599 195.012 362.67 195.335 362.703 195.561C362.735 195.787 362.768 196.103 362.781 196.381V196.82C362.781 196.995 362.8 197.26 362.8 197.486Z" fill="url(#paint7_linear_160_603)"/>
<path d="M281.431 245.83C279.961 246.185 278.446 246.508 276.878 246.812H100.122C94.9031 246.855 89.6922 246.394 84.5628 245.436C83.6079 244.783 82.721 244.036 81.9153 243.208C81.6551 242.943 81.4014 242.665 81.1607 242.388C80.2531 241.334 79.4797 240.173 78.858 238.932C78.7214 238.661 78.5913 238.383 78.4742 238.112C77.9915 237.005 77.6422 235.845 77.4335 234.656C77.3879 234.385 77.3424 234.114 77.3099 233.83C77.232 233.187 77.1929 232.54 77.1928 231.892V197.234C77.1863 196.865 77.1993 196.497 77.2318 196.129C77.2708 195.768 77.2773 195.58 77.3099 195.309C77.4552 194.129 77.7368 192.97 78.149 191.854C78.2531 191.576 78.3637 191.305 78.4807 191.027C79.0086 189.797 79.6905 188.638 80.5102 187.578L81.1607 186.751C81.6411 186.194 82.156 185.668 82.7024 185.175C88.43 183.949 94.2762 183.353 100.135 183.399H281.828L283.285 183.774C281.205 184.263 279.296 185.298 277.756 186.77C277.482 187.03 277.223 187.306 276.982 187.597C276.111 188.609 275.448 189.781 275.031 191.046C274.939 191.317 274.863 191.593 274.803 191.873C274.629 192.603 274.541 193.351 274.543 194.101V236.129C274.545 236.78 274.612 237.429 274.744 238.067C274.798 238.344 274.867 238.618 274.953 238.887C275.321 240.145 275.935 241.32 276.761 242.342C276.988 242.628 277.229 242.901 277.483 243.163C278.599 244.313 279.944 245.222 281.431 245.83Z" fill="#FF8A00"/>
<path d="M281.431 245.83C279.961 246.185 278.446 246.508 276.878 246.812H100.122C94.9031 246.855 89.6922 246.394 84.5628 245.436C83.6079 244.783 82.721 244.036 81.9153 243.208C81.6551 242.943 81.4014 242.665 81.1607 242.388C80.2531 241.334 79.4797 240.173 78.858 238.932C78.7214 238.661 78.5913 238.383 78.4742 238.112C77.9915 237.005 77.6422 235.845 77.4335 234.656C77.3879 234.385 77.3424 234.114 77.3099 233.83C77.232 233.187 77.1929 232.54 77.1928 231.892V197.234C77.1863 196.865 77.1993 196.497 77.2318 196.129C77.2708 195.768 77.2773 195.58 77.3099 195.309C77.4552 194.129 77.7368 192.97 78.149 191.854C78.2531 191.576 78.3637 191.305 78.4807 191.027C79.0086 189.797 79.6905 188.638 80.5102 187.578L81.1607 186.751C81.6411 186.194 82.156 185.668 82.7024 185.175C88.43 183.949 94.2762 183.353 100.135 183.399H281.828L283.285 183.774C281.205 184.263 279.296 185.298 277.756 186.77C277.482 187.03 277.223 187.306 276.982 187.597C276.111 188.609 275.448 189.781 275.031 191.046C274.939 191.317 274.863 191.593 274.803 191.873C274.629 192.603 274.541 193.351 274.543 194.101V236.129C274.545 236.78 274.612 237.429 274.744 238.067C274.798 238.344 274.867 238.618 274.953 238.887C275.321 240.145 275.935 241.32 276.761 242.342C276.988 242.628 277.229 242.901 277.483 243.163C278.599 244.313 279.944 245.222 281.431 245.83Z" fill="url(#paint8_linear_160_603)"/>
<path d="M358.071 249.382C357.548 249.983 356.981 250.545 356.374 251.062C356.976 250.54 357.543 249.979 358.071 249.382Z" fill="url(#paint9_linear_160_603)"/>
<path d="M359.776 188.747C359.678 188.598 359.58 188.45 359.476 188.308C359.281 188.023 359.073 187.739 358.865 187.468C359.19 187.881 359.496 188.308 359.776 188.747Z" fill="url(#paint10_linear_160_603)"/>
<path d="M361.838 193.003C361.89 193.152 361.935 193.3 361.981 193.449C361.896 193.145 361.792 192.848 361.682 192.551C361.74 192.7 361.792 192.848 361.838 193.003Z" fill="url(#paint11_linear_160_603)"/>
<path d="M362.8 197.486V232.938C362.798 233.189 362.777 233.44 362.735 233.688C362.62 234.751 362.389 235.799 362.046 236.814C361.968 237.065 361.883 237.311 361.786 237.55C360.145 241.602 357.045 244.904 353.089 246.812H275.187C269.176 246.812 264.213 242.782 263.478 237.563C263.433 237.315 263.406 237.065 263.4 236.814C263.376 236.599 263.365 236.383 263.368 236.168V194.34C263.368 188.456 268.662 183.696 275.206 183.696H354.923C359.717 186.77 362.8 191.828 362.8 197.486Z" fill="#FF8A00"/>
<path d="M359.476 187.578H276.982C277.223 187.287 277.482 187.011 277.756 186.751H358.793C359.04 187.01 359.269 187.287 359.476 187.578Z" fill="white"/>
<path d="M361.838 191.828H274.803C274.863 191.548 274.939 191.272 275.031 191.001H361.545C361.629 191.298 361.74 191.576 361.838 191.828Z" fill="white"/>
<path d="M362.768 196.129H274.543V195.303H362.696C362.696 195.574 362.748 195.852 362.768 196.129Z" fill="white"/>
<path d="M362.807 199.578H274.543V200.405H362.807V199.578Z" fill="white"/>
<path d="M362.807 203.854H274.543V204.681H362.807V203.854Z" fill="white"/>
<path d="M362.807 208.13H274.543V208.957H362.807V208.13Z" fill="white"/>
<path d="M362.807 212.412H274.543V213.232H362.807V212.412Z" fill="white"/>
<path d="M362.807 216.688H274.543V217.508H362.807V216.688Z" fill="white"/>
<path d="M362.807 220.964H274.543V221.784H362.807V220.964Z" fill="white"/>
<path d="M362.807 225.239H274.543V226.06H362.807V225.239Z" fill="white"/>
<path d="M362.807 229.515H274.543V230.342H362.807V229.515Z" fill="white"/>
<path d="M362.813 233.81V234.637H274.543V233.81H362.813Z" fill="white"/>
<path d="M361.519 238.067C361.519 238.344 361.161 238.616 361.135 238.893H274.953C274.867 238.622 274.798 238.346 274.744 238.067H361.519Z" fill="white"/>
<path d="M280.15 187.578H80.4973L81.1478 186.751H278.563C279.109 187.022 279.636 187.307 280.15 187.578Z" fill="white"/>
<path d="M278.355 191.828H78.136C78.2401 191.55 78.3506 191.279 78.4677 191.001H277.568C277.846 191.261 278.109 191.537 278.355 191.828Z" fill="white"/>
<path d="M280.566 196.129H77.2189C77.2253 195.854 77.2514 195.58 77.2969 195.309H280.358C280.447 195.577 280.516 195.851 280.566 196.129Z" fill="white"/>
<path d="M280.657 199.578H77.1733V200.399H280.657V199.578Z" fill="white"/>
<path d="M280.657 203.854H77.1733V204.674H280.657V203.854Z" fill="white"/>
<path d="M280.657 208.13H77.1733V208.957H280.657V208.13Z" fill="white"/>
<path d="M280.657 212.412H77.1733V213.232H280.657V212.412Z" fill="white"/>
<path d="M280.657 216.694H77.1733V217.508H280.657V216.694Z" fill="white"/>
<path d="M280.657 220.964H77.1733V221.777H280.657V220.964Z" fill="white"/>
<path d="M280.657 225.239H77.1733V226.06H280.657V225.239Z" fill="white"/>
<path d="M280.657 229.515H77.1733V230.342H280.657V229.515Z" fill="white"/>
<path d="M280.358 233.81C280.273 234.092 280.171 234.368 280.052 234.637H77.4075C77.362 234.366 77.3165 234.094 77.2839 233.81H280.358Z" fill="white"/>
<path d="M277.594 238.073C277.302 238.362 276.996 238.635 276.676 238.893H78.8451C78.7085 238.622 78.5784 238.344 78.4613 238.073H277.594Z" fill="white"/>
<path opacity="0.2" d="M287.754 172.451C284.82 175.952 281.028 179.472 279.526 180.253C270.978 184.723 261.078 188.146 256.063 196.349C249.714 206.683 253.818 220.201 250.904 231.969C250.371 234.114 249.545 236.303 247.873 237.782C246.201 239.261 243.515 239.765 241.739 238.428C240.178 237.259 239.788 235.141 239.495 233.222C236.931 215.115 236.835 196.746 239.209 178.613C229.451 182.94 222.849 192.073 217.639 201.309C212.428 210.545 208.057 220.447 200.798 228.204C198.736 230.4 196.023 232.551 193.031 232.124C189.434 227.603 191.32 220.996 193.363 215.583C197.454 204.681 201.559 193.765 206.854 183.431C208.558 180.073 210.451 176.701 213.313 174.234C214.096 173.56 214.941 172.961 215.837 172.445L287.754 172.451Z" fill="#3F3D56"/>
<path d="M358.832 242.349C358.611 242.639 358.364 242.865 358.117 243.169H81.9023C81.6421 242.904 81.3884 242.626 81.1477 242.349H358.832Z" fill="white"/>
<path d="M141.662 346.879H108.286C97.5854 344.205 92.4011 332.714 92.4011 332.714C92.4011 332.714 91.4319 276.523 92.4011 269.418C93.3703 262.313 109.58 257.211 109.58 257.211H141.662C130.962 258.735 123.188 269.095 123.188 269.095C123.188 269.095 122.538 331.197 123.188 335.376C123.839 339.554 141.662 346.879 141.662 346.879Z" fill="url(#paint12_linear_160_603)"/>
<path d="M141.662 346.879H130.962C120.274 344.205 115.09 332.714 115.09 332.714C115.09 332.714 114.114 276.523 115.09 269.418C116.066 262.313 132.263 257.211 132.263 257.211H141.662C130.962 258.735 123.188 269.095 123.188 269.095C123.188 269.095 122.538 331.197 123.188 335.376C123.839 339.554 141.662 346.879 141.662 346.879Z" fill="#FF8A00"/>
<path d="M141.662 346.879H130.962C120.274 344.205 115.09 332.714 115.09 332.714C115.09 332.714 114.114 276.523 115.09 269.418C116.066 262.313 132.263 257.211 132.263 257.211H141.662C130.962 258.735 123.188 269.095 123.188 269.095C123.188 269.095 122.538 331.197 123.188 335.376C123.839 339.554 141.662 346.879 141.662 346.879Z" fill="url(#paint13_linear_160_603)"/>
<path d="M188.146 213.013L185.036 218.374L192.257 221.493L195.242 216.391L188.146 213.013Z" fill="url(#paint14_linear_160_603)"/>
<path d="M236.691 227.409L236.353 233.384L244.224 232.932L244.556 227.409H236.691Z" fill="url(#paint15_linear_160_603)"/>
<path d="M186.454 217.185C186.297 216.859 186.076 216.566 185.804 216.326C185.485 216.114 185.119 215.981 184.737 215.939L172.241 213.445C171.79 213.335 171.327 213.285 170.862 213.297C169.665 213.374 168.683 214.246 167.896 215.144C167.445 215.569 167.156 216.134 167.077 216.746C167.122 217.13 167.247 217.5 167.444 217.834C167.641 218.167 167.906 218.457 168.221 218.684C169.099 219.492 170.022 220.251 170.986 220.957C172.838 222.246 174.764 223.426 176.756 224.49C178.096 225.239 179.436 225.989 180.808 226.673C183.065 227.797 185.407 228.74 187.762 229.657C187.917 229.753 188.104 229.784 188.283 229.743C188.461 229.701 188.615 229.592 188.712 229.438C190.415 227.674 191.758 225.599 192.667 223.327C192.894 222.766 193.317 221.532 192.667 221.067C192.439 220.905 191.795 220.931 191.509 220.867C190.462 220.617 189.476 220.164 188.607 219.533C187.738 218.902 187.005 218.106 186.448 217.192L186.454 217.185Z" fill="#3F3D56"/>
<path d="M237.153 230.671C236.851 230.47 236.513 230.328 236.158 230.251C235.775 230.231 235.392 230.297 235.039 230.445L222.979 234.534C222.522 234.66 222.084 234.846 221.678 235.089C220.683 235.735 220.273 237.027 220.045 238.17C219.869 238.761 219.909 239.394 220.156 239.959C220.388 240.265 220.681 240.52 221.017 240.708C221.352 240.896 221.724 241.012 222.107 241.051C223.274 241.315 224.456 241.51 225.646 241.632C227.898 241.826 230.159 241.884 232.418 241.806C233.959 241.806 235.494 241.768 237.03 241.671C239.553 241.516 242.058 241.16 244.549 240.779C244.73 240.786 244.906 240.723 245.04 240.602C245.174 240.481 245.255 240.313 245.265 240.133C245.842 237.757 245.955 235.292 245.596 232.874C245.505 232.273 245.226 231.007 244.439 230.936C244.159 230.904 243.619 231.253 243.339 231.337C242.915 231.466 242.479 231.557 242.038 231.608C240.351 231.813 238.642 231.486 237.153 230.671Z" fill="#3F3D56"/>
<path d="M285.978 150.104C285.978 150.104 283.936 169.086 266.314 172.451C254.384 174.718 239.794 173.911 231.624 173.155C229.692 172.978 227.748 173.335 226.008 174.186C224.268 175.038 222.798 176.351 221.763 177.98L196.394 218.102L189.043 214.576H188.985L186.383 213.336L207.504 164.371C208.745 161.331 210.65 158.602 213.082 156.381C215.514 154.161 218.412 152.504 221.567 151.531L245.837 144.071L251.509 142.327C251.509 142.327 274.231 140.054 285.978 150.104Z" fill="#3F3D56"/>
<path opacity="0.24" d="M245.883 144.032L247.476 147.384C247.476 147.384 219.506 155.523 216.071 159.482C211.485 164.778 189.069 214.543 189.069 214.543H189.011L186.409 213.303L207.504 164.371C208.745 161.331 210.65 158.602 213.082 156.381C215.514 154.161 218.412 152.504 221.568 151.531L245.883 144.032Z" fill="white"/>
<path d="M255.796 146.81C255.796 146.81 233.328 168.576 232.6 180.202C231.871 191.828 235.013 228.281 235.013 228.281H245.915C245.915 228.281 245.375 184.025 249.818 183.715C254.261 183.405 274.4 170.514 277.633 166.832C280.866 163.15 286.024 150.091 286.024 150.091L255.796 146.81Z" fill="#3F3D56"/>
<path d="M285.978 150.104C285.978 150.104 267.999 159.23 249.265 148.553C247.633 147.623 246.067 146.585 244.575 145.447C244.575 145.447 252.459 131.463 246.182 111.15C243.495 102.463 243.437 85.8768 256.739 83.5129H256.804C270.035 81.1812 269.287 84.4236 269.287 84.4236L275.271 90.1978C286.778 99.4662 288.04 113.676 285.978 150.104Z" fill="#1D59B1"/>
<path opacity="0.24" d="M256.804 83.5C256.251 84.696 255.392 85.7271 254.313 86.4904C254.313 86.4904 246.403 89.9718 247.984 101.488C249.564 113.004 252.459 135.151 252.459 135.151L249.265 148.553C247.633 147.623 246.067 146.585 244.575 145.447C244.575 145.447 252.459 131.463 246.182 111.15C243.495 102.463 243.437 85.8769 256.739 83.5129L256.804 83.5Z" fill="white"/>
<path d="M268.701 82.7637C268.004 83.5912 267.149 84.2741 266.186 84.7736C265.223 85.273 264.17 85.5792 263.087 85.6746C262.005 85.7699 260.914 85.6526 259.877 85.3294C258.841 85.0061 257.878 84.4833 257.045 83.7906L256.759 83.5452C256.759 83.5452 247.001 93.2335 256.863 94.4025C262.067 95.0484 268.474 88.7962 270.328 85.2632L268.701 82.7637Z" fill="#3F3D56"/>
<path d="M271.629 73.689C271.59 73.8181 269.755 79.3921 268.376 83.3772C267.353 86.4835 265.182 89.0892 262.301 90.6693C260.61 91.6831 258.728 92.3426 256.772 92.6069C256.438 92.6371 256.102 92.6018 255.782 92.5029C255.462 92.404 255.165 92.2435 254.908 92.0306C254.65 91.8176 254.438 91.5564 254.282 91.2619C254.126 90.9674 254.031 90.6453 254.001 90.314C253.95 89.7846 254.071 89.2528 254.345 88.7962C254.801 88.0018 255.295 87.0846 255.75 86.1093C256.7 84.0813 257.494 81.8271 257.364 80.0445V79.8507C257.246 78.9206 257.858 78.1004 258.886 77.3834C260.336 76.3823 262.619 75.5943 264.851 75.0001C267.083 74.4372 269.346 73.9995 271.629 73.689Z" fill="url(#paint16_linear_160_603)"/>
<path d="M257.168 86.0318C256.721 86.122 256.264 86.1546 255.809 86.1287C256.759 84.1006 257.552 81.8465 257.422 80.0638L258.931 77.4028L260.057 75.4264L264.896 75.0195L269.788 74.6125C266.561 82.1888 261.143 85.3278 257.168 86.0318Z" fill="url(#paint17_linear_160_603)"/>
<path d="M266.256 48.2023C262.851 47.4952 259.303 48.1593 256.392 50.0487C253.48 51.9381 251.443 54.8981 250.729 58.2781C250.664 58.6075 250.605 58.924 250.56 59.2793C249.559 64.4992 249.517 69.8558 250.436 75.0905C252.667 83.1964 264.656 80.2576 267.088 77.7968C269.521 75.336 279.298 63.9942 277.698 59.5828C276.676 56.5859 273.099 49.7331 266.256 48.2023Z" fill="url(#paint18_linear_160_603)"/>
<path d="M256.596 40.2968L258.443 41.9825C257.174 41.6104 255.833 41.5434 254.533 41.7871C253.232 42.0308 252.008 42.5782 250.963 43.3841C248.485 44.7959 246.662 47.114 245.883 49.8429L249.987 49.1131C249.987 49.1131 248.491 53.4986 255.295 55.6882C262.099 57.8777 269.3 60.1319 269.3 60.1319L267.843 56.2566C267.843 56.2566 271.661 59.1114 271.98 60.894C271.968 63.5976 271.751 66.2965 271.329 68.9676C271.329 68.9676 274.244 65.0277 274.686 66.1774C275.128 67.327 272.591 70.9246 271.434 71.564C270.276 72.2035 269.729 74.858 269.586 75.0518C269.443 75.2456 274.79 72.83 275.317 71.6415C275.844 70.4531 283.611 59.1437 281.477 55.7592L283.227 56.0886C282.394 55.138 281.359 54.3835 280.196 53.8797C280.196 53.8797 272.93 36.1696 256.596 40.2968Z" fill="#3F3D56"/>
<path d="M254.02 135.668C253.038 134.693 252.069 133.53 250.696 133.298C250.215 134.434 251.197 135.603 251.613 136.76C251.677 136.888 251.711 137.029 251.711 137.173C251.711 137.316 251.677 137.458 251.613 137.586C251.418 137.896 250.963 137.916 250.605 137.89C248.87 137.767 247.166 137.361 245.564 136.689C244.081 136.043 242.656 135.209 241.049 135.048C240.878 135.014 240.7 135.037 240.542 135.113C240.152 135.358 240.379 135.952 240.659 136.314C241.256 137.095 241.934 137.812 242.682 138.452C241.549 137.953 240.34 137.645 239.104 137.541C238.76 137.541 238.291 137.612 238.298 137.954C238.32 138.095 238.389 138.225 238.493 138.323C239.407 139.362 240.511 140.221 241.745 140.854C240.848 140.666 239.93 140.59 239.013 140.628C238.617 140.628 238.09 140.835 238.148 141.223C238.174 141.35 238.237 141.467 238.33 141.558C239.431 142.878 240.918 143.824 242.585 144.265L239.983 144.323C239.819 144.316 239.656 144.35 239.508 144.42C239.039 144.717 239.449 145.447 239.905 145.763C241.908 147.152 244.458 147.397 246.91 147.572C251.6 147.908 256.537 148.088 260.766 146.034C261.071 145.879 261.416 145.673 261.475 145.337C261.488 145.161 261.461 144.984 261.397 144.82C260.883 143.122 260.622 140.041 259.068 139.007C258.313 138.51 257.383 138.226 256.609 137.715C255.835 137.205 254.905 136.107 254.02 135.668Z" fill="url(#paint19_linear_160_603)"/>
<path d="M289.797 132.064C288.327 146.409 262.145 148.166 262.145 148.166L259.445 138.949L258.97 137.328C258.97 137.328 272.995 135.571 275.675 131.211C278.355 126.852 267.322 112.235 273.99 104.084C280.657 95.9332 282.173 98.4393 282.173 98.4393C282.173 98.4393 291.254 117.719 289.797 132.064Z" fill="#1D59B1"/>
<path d="M219.466 110.621C219.459 111.07 219.422 111.519 219.356 111.964C219.135 113.973 218.504 117.648 216.825 118.985C214.464 120.864 214.139 118.126 214.191 117.047C214.242 116.455 214.34 115.868 214.484 115.29C215.03 112.952 217.925 111.35 219.037 110.821L219.466 110.621Z" fill="url(#paint20_linear_160_603)"/>
<path d="M219.356 111.964C219.135 113.973 218.504 117.648 216.825 118.985C216.097 118.462 215.16 117.764 214.191 117.047C212.89 116.078 211.505 115.058 210.522 114.347C209.648 113.766 208.853 113.075 208.155 112.293C207.543 111.5 207.035 110.632 206.645 109.71L204.629 105.357C203.978 103.929 203.328 102.043 204.486 100.939C204.779 100.655 207.445 100.138 207.621 99.7633C208.109 98.6912 205.019 96.4241 205.214 95.2421C205.311 94.9202 205.518 94.642 205.8 94.4556C206.081 94.2693 206.419 94.1865 206.756 94.2216C207.406 94.2539 209.254 95.9397 209.833 96.282C210.978 96.9279 210.015 97.845 211.134 98.5168C212.585 99.2574 213.904 100.231 215.037 101.397C216.299 102.864 216.936 104.743 217.541 106.564C217.983 107.901 218.575 109.348 219.031 110.789C219.154 111.202 219.265 111.583 219.356 111.964Z" fill="url(#paint21_linear_160_603)"/>
<path d="M209.787 101.669L205.448 81.2394L203.842 73.689L229.055 80.3997L236.372 129.274L212.942 122.182L209.787 101.669Z" fill="#00B3FF"/>
<path d="M215.037 101.423L205.058 79.4115L212.942 122.182L236.372 129.274L233.862 112.513L215.037 101.423Z" fill="url(#paint22_linear_160_603)"/>
<path d="M211.225 110.479C212.018 110.085 213.645 109.368 214.054 108.586C214.152 108.399 214.295 108.153 214.172 107.985C213.606 107.21 211.277 108.199 210.613 107.985C211.069 107.243 215.128 104.989 213.215 104.478C212.806 104.369 210.262 105.647 209.852 105.531C210.171 105.273 212.786 103.426 213.235 102.948C213.364 102.805 213.441 102.623 213.453 102.432C213.465 102.24 213.411 102.05 213.3 101.893C213.188 101.736 213.027 101.622 212.841 101.568C212.656 101.514 212.457 101.525 212.279 101.598C210.894 102.229 209.473 102.781 208.024 103.251C208.304 102.793 212.083 100.668 212.233 100.125C212.317 99.9199 212.331 99.6929 212.272 99.4792C212.22 99.3642 212.143 99.2615 212.048 99.178C211.953 99.0945 211.841 99.032 211.719 98.9948C210.665 98.5879 209.482 98.9948 208.428 99.4146L205.93 100.396C205.13 100.706 204.245 101.107 203.978 101.908C203.862 102.313 203.842 102.74 203.92 103.154C204.224 105.769 205.164 108.272 206.658 110.446C207.4 111.518 209.742 114.108 211.088 114.36C212.285 114.586 210.106 111.092 211.225 110.479Z" fill="url(#paint23_linear_160_603)"/>
<path opacity="0.24" d="M237.309 176.688C237.309 176.688 245.909 157.124 255.848 151.557L252.459 150.194C252.459 150.194 235.006 168.621 232.944 178.103C230.882 187.584 235.019 228.269 235.019 228.269H237.882C237.882 228.269 233.153 180.68 237.309 176.688Z" fill="white"/>
<path opacity="0.24" d="M276.403 134.344C270.868 136.605 261.442 138.575 259.413 138.988L259.022 139.065L258.938 137.367C258.938 137.367 272.962 135.61 275.642 131.25C278.322 126.89 267.29 112.274 273.957 104.123C273.957 104.123 273.112 111.331 275.304 116.66C277.496 121.988 282.622 131.76 276.403 134.344Z" fill="white"/>
<defs>
<linearGradient id="paint0_linear_160_603" x1="454.831" y1="63.1288" x2="494.833" y2="124.522" gradientUnits="userSpaceOnUse">
<stop stop-color="white" stop-opacity="0"/>
<stop offset="0.99" stop-color="white"/>
</linearGradient>
<linearGradient id="paint1_linear_160_603" x1="228.755" y1="220.279" x2="229.89" y2="116.782" gradientUnits="userSpaceOnUse">
<stop stop-color="white" stop-opacity="0"/>
<stop offset="0.99" stop-color="white"/>
</linearGradient>
<linearGradient id="paint2_linear_160_603" x1="268.181" y1="135.939" x2="214.687" y2="265.534" gradientUnits="userSpaceOnUse">
<stop offset="0.17" stop-color="#00272E"/>
<stop offset="1" stop-color="#69B9EB" stop-opacity="0"/>
</linearGradient>
<linearGradient id="paint3_linear_160_603" x1="189.746" y1="317.284" x2="191.907" y2="393.119" gradientUnits="userSpaceOnUse">
<stop stop-opacity="0"/>
<stop offset="0.91" stop-opacity="0.8"/>
<stop offset="1"/>
</linearGradient>
<linearGradient id="paint4_linear_160_603" x1="192.166" y1="248.808" x2="188.76" y2="291.698" gradientUnits="userSpaceOnUse">
<stop stop-color="white" stop-opacity="0"/>
<stop offset="0.99" stop-color="white"/>
</linearGradient>
<linearGradient id="paint5_linear_160_603" x1="332.332" y1="301.731" x2="202.121" y2="296.753" gradientUnits="userSpaceOnUse">
<stop stop-opacity="0"/>
<stop offset="0.91" stop-opacity="0.8"/>
<stop offset="1"/>
</linearGradient>
<linearGradient id="paint6_linear_160_603" x1="357.122" y1="370.512" x2="379.16" y2="136.614" gradientUnits="userSpaceOnUse">
<stop stop-color="white" stop-opacity="0"/>
<stop offset="0.99" stop-color="white"/>
</linearGradient>
<linearGradient id="paint7_linear_160_603" x1="363.958" y1="218.832" x2="273.101" y2="211.293" gradientUnits="userSpaceOnUse">
<stop stop-color="#68E1FD"/>
<stop offset="1" stop-color="white"/>
</linearGradient>
<linearGradient id="paint8_linear_160_603" x1="277.665" y1="215.105" x2="36.1668" y2="215.105" gradientUnits="userSpaceOnUse">
<stop stop-color="white" stop-opacity="0"/>
<stop offset="0.99" stop-color="white"/>
</linearGradient>
<linearGradient id="paint9_linear_160_603" x1="356.374" y1="250.222" x2="358.071" y2="250.222" gradientUnits="userSpaceOnUse">
<stop stop-color="#68E1FD"/>
<stop offset="1" stop-color="#69B9EB"/>
</linearGradient>
<linearGradient id="paint10_linear_160_603" x1="358.865" y1="188.107" x2="359.776" y2="188.107" gradientUnits="userSpaceOnUse">
<stop stop-color="#68E1FD"/>
<stop offset="1" stop-color="#69B9EB"/>
</linearGradient>
<linearGradient id="paint11_linear_160_603" x1="361.682" y1="192.997" x2="361.981" y2="192.997" gradientUnits="userSpaceOnUse">
<stop stop-color="#68E1FD"/>
<stop offset="1" stop-color="#69B9EB"/>
</linearGradient>
<linearGradient id="paint12_linear_160_603" x1="107.544" y1="365.642" x2="129.595" y2="230.137" gradientUnits="userSpaceOnUse">
<stop stop-color="white" stop-opacity="0"/>
<stop offset="0.99" stop-color="white"/>
</linearGradient>
<linearGradient id="paint13_linear_160_603" x1="127.273" y1="404.175" x2="131.25" y2="0.8197" gradientUnits="userSpaceOnUse">
<stop stop-color="white" stop-opacity="0"/>
<stop offset="0.99" stop-color="white"/>
</linearGradient>
<linearGradient id="paint14_linear_160_603" x1="196.368" y1="217.76" x2="181.356" y2="216.509" gradientUnits="userSpaceOnUse">
<stop stop-color="#ECC4D7"/>
<stop offset="0.42" stop-color="#EFD4D1"/>
<stop offset="1" stop-color="#F2EAC9"/>
</linearGradient>
<linearGradient id="paint15_linear_160_603" x1="246.142" y1="226.848" x2="232.42" y2="232.465" gradientUnits="userSpaceOnUse">
<stop stop-color="#ECC4D7"/>
<stop offset="0.42" stop-color="#EFD4D1"/>
<stop offset="1" stop-color="#F2EAC9"/>
</linearGradient>
<linearGradient id="paint16_linear_160_603" x1="270.093" y1="83.2222" x2="259.471" y2="83.0978" gradientUnits="userSpaceOnUse">
<stop stop-color="#ECC4D7"/>
<stop offset="0.42" stop-color="#EFD4D1"/>
<stop offset="1" stop-color="#F2EAC9"/>
</linearGradient>
<linearGradient id="paint17_linear_160_603" x1="263.68" y1="78.772" x2="234.808" y2="91.016" gradientUnits="userSpaceOnUse">
<stop stop-color="#ECC4D7"/>
<stop offset="0.42" stop-color="#EFD4D1"/>
<stop offset="1" stop-color="#F2EAC9"/>
</linearGradient>
<linearGradient id="paint18_linear_160_603" x1="276.637" y1="62.2826" x2="252.653" y2="65.2366" gradientUnits="userSpaceOnUse">
<stop stop-color="#ECC4D7"/>
<stop offset="0.42" stop-color="#EFD4D1"/>
<stop offset="1" stop-color="#F2EAC9"/>
</linearGradient>
<linearGradient id="paint19_linear_160_603" x1="238.116" y1="140.538" x2="261.449" y2="140.538" gradientUnits="userSpaceOnUse">
<stop stop-color="#ECC4D7"/>
<stop offset="0.42" stop-color="#EFD4D1"/>
<stop offset="1" stop-color="#F2EAC9"/>
</linearGradient>
<linearGradient id="paint20_linear_160_603" x1="214.184" y1="115.122" x2="219.466" y2="115.122" gradientUnits="userSpaceOnUse">
<stop stop-color="#183866"/>
<stop offset="1" stop-color="#1A7FC1"/>
</linearGradient>
<linearGradient id="paint21_linear_160_603" x1="203.848" y1="106.597" x2="219.356" y2="106.597" gradientUnits="userSpaceOnUse">
<stop stop-color="#ECC4D7"/>
<stop offset="0.42" stop-color="#EFD4D1"/>
<stop offset="1" stop-color="#F2EAC9"/>
</linearGradient>
<linearGradient id="paint22_linear_160_603" x1="212.766" y1="91.806" x2="243.767" y2="167.304" gradientUnits="userSpaceOnUse">
<stop stop-color="white" stop-opacity="0"/>
<stop offset="0.99" stop-color="white"/>
</linearGradient>
<linearGradient id="paint23_linear_160_603" x1="203.842" y1="106.597" x2="214.224" y2="106.597" gradientUnits="userSpaceOnUse">
<stop stop-color="#ECC4D7"/>
<stop offset="0.42" stop-color="#EFD4D1"/>
<stop offset="1" stop-color="#F2EAC9"/>
</linearGradient>
</defs>
</svg>
