<svg width="435" height="310" viewBox="0 0 435 310" fill="none" xmlns="http://www.w3.org/2000/svg">
<g clip-path="url(#clip0_108_348)">
<path opacity="0.18" d="M340.542 66.2286C366.245 78.2022 392.728 90.7417 410.643 110.795C421.401 122.851 428.57 137.203 432.345 152.136C438.81 177.626 434.024 207.175 411.78 224.705C404.04 230.832 394.573 235.157 384.809 238.48C364.569 245.356 342.813 248.169 321.156 246.71C303.372 245.5 285.618 241.414 267.923 243.361C246.34 245.729 227.496 256.737 207.39 263.985C182.407 272.957 155.203 276.193 128.377 273.383C121.613 272.667 114.766 271.519 108.818 268.622C101.757 265.179 96.5237 259.556 90.9569 254.416C78.4059 242.781 63.6001 233.168 47.2199 226.019C38.6285 222.27 29.5251 219.159 22.0649 213.884C2.41721 200.02 -0.946716 175.211 0.196442 153.211C1.33957 131.211 7.02548 106.926 27.215 93.5664C31.722 90.586 36.7947 88.2754 41.1649 85.134C55.7399 74.6558 60.0981 57.116 69.4337 42.7798C90.3674 10.7221 137.075 -3.31283 179.127 0.654139C239.386 6.33978 288.738 42.0996 340.542 66.2286Z" fill="#AA68FD"/>
<path d="M24.8275 153.435C25.3753 157.848 31.6209 165.258 40.2599 173.586C54.4182 187.211 74.9887 203.281 87.3608 212.643C93.7433 217.477 97.9408 220.525 97.9408 220.525V136.648C97.9408 136.648 82.9609 119.918 72.0773 118.843C61.1936 117.768 39.2299 128.869 39.2299 128.869C39.2299 128.869 22.9938 138.086 24.8275 153.435Z" fill="#FDA768"/>
<path d="M40.2598 173.586C54.4181 187.211 74.9886 203.281 87.3607 212.643C88.2835 211.361 88.4681 209.616 88.5515 208.037C88.8789 200.15 88.8015 192.253 88.7182 184.36C88.6408 176.696 88.5634 169.038 88.0097 161.389C87.4857 154.265 86.4855 146.98 82.7465 140.62C81.9026 141.278 81.2061 142.066 80.6924 142.946C75.9829 150.002 73.006 157.786 70.0291 165.512C68.5565 169.32 67.0839 173.143 65.6113 176.982C62.3113 175.399 59.3616 173.315 56.9008 170.829C54.6384 168.643 52.62 166.28 50.5421 163.965C49.0894 162.345 46.2553 157.734 43.9929 159.468C40.3253 162.256 40.0276 168.638 40.2598 173.586Z" fill="url(#paint0_linear_108_348)"/>
<path d="M86.944 26.2111H330.808V272.521H86.944V26.2111Z" fill="#68E1FD"/>
<path d="M86.944 26.2111H330.808V272.521H86.944V26.2111Z" fill="url(#paint1_linear_108_348)"/>
<path d="M120.458 38.1172L330.808 54.5614C329.861 54.5614 330.808 31.715 330.808 26.2111H109.027V28.1426C109.027 30.7871 110.231 33.3234 112.375 35.1938C114.518 37.0643 117.426 38.1158 120.458 38.1172Z" fill="url(#paint2_linear_108_348)"/>
<path d="M86.944 54.5614H330.808V300.872H86.944V54.5614Z" fill="#FC6666"/>
<path d="M296.138 54.5614H330.808V300.872H296.138V54.5614Z" fill="url(#paint3_linear_108_348)"/>
<path d="M275.074 100.597H317.197V137.333H275.074V100.597Z" fill="white"/>
<path d="M230.61 100.597H272.734V137.333H230.61V100.597Z" fill="white"/>
<path d="M186.141 100.597H228.265V137.333H186.141V100.597Z" fill="white"/>
<path d="M141.678 100.597H183.801V137.333H141.678V100.597Z" fill="white"/>
<path d="M275.074 138.948H317.197V175.684H275.074V138.948Z" fill="white"/>
<path d="M230.61 138.948H272.734V175.684H230.61V138.948Z" fill="white"/>
<path d="M186.141 138.948H228.265V175.684H186.141V138.948Z" fill="white"/>
<path d="M141.678 138.948H183.801V175.684H141.678V138.948Z" fill="white"/>
<path d="M275.074 177.299H317.197V214.035H275.074V177.299Z" fill="white"/>
<path d="M230.61 177.299H272.734V214.035H230.61V177.299Z" fill="white"/>
<path d="M186.141 177.299H228.265V214.035H186.141V177.299Z" fill="white"/>
<path d="M141.678 177.299H183.801V214.035H141.678V177.299Z" fill="white"/>
<path d="M275.074 215.649H317.197V252.385H275.074V215.649Z" fill="white"/>
<path d="M230.61 215.649H272.734V252.385H230.61V215.649Z" fill="white"/>
<path d="M186.141 215.649H228.265V252.385H186.141V215.649Z" fill="white"/>
<path d="M141.678 215.649H183.801V252.385H141.678V215.649Z" fill="white"/>
<path d="M275.074 254H317.197V290.736H275.074V254Z" fill="white"/>
<path d="M230.61 254H272.734V290.736H230.61V254Z" fill="white"/>
<path d="M186.141 254H228.265V290.736H186.141V254Z" fill="white"/>
<path d="M97.9587 100.597H140.082V137.333H97.9587V100.597Z" fill="white"/>
<path d="M97.9587 62.2461H140.082V98.9821H97.9587V62.2461Z" fill="white"/>
<path d="M141.678 62.2461H183.801V98.9821H141.678V62.2461Z" fill="white"/>
<path d="M97.9587 138.948H140.082V175.684H97.9587V138.948Z" fill="white"/>
<path d="M97.9587 177.299H140.082V214.035H97.9587V177.299Z" fill="white"/>
<path d="M97.9587 215.649H140.082V252.385H97.9587V215.649Z" fill="white"/>
<path d="M311.916 16.2521V36.17C311.916 37.2448 310.35 38.1171 308.427 38.1171C306.498 38.1171 304.938 37.2448 304.938 36.17V16.2521C304.938 15.1772 306.498 14.3049 308.427 14.3049C310.35 14.3049 311.916 15.1772 311.916 16.2521Z" fill="#68E1FD"/>
<path d="M278.563 16.2521V36.17C278.563 37.2448 277.003 38.1171 275.074 38.1171C273.145 38.1171 271.585 37.2448 271.585 36.17V16.2521C271.585 15.1772 273.145 14.3049 275.074 14.3049C277.003 14.3049 278.563 15.1772 278.563 16.2521Z" fill="#68E1FD"/>
<path d="M245.209 16.2521V36.17C245.209 37.2448 243.649 38.1171 241.72 38.1171C239.791 38.1171 238.231 37.2448 238.231 36.17V16.2521C238.231 15.1772 239.791 14.3049 241.72 14.3049C243.649 14.3049 245.209 15.1772 245.209 16.2521Z" fill="#68E1FD"/>
<path d="M211.856 16.2521V36.17C211.856 37.2448 210.296 38.1171 208.367 38.1171C206.444 38.1171 204.878 37.2448 204.878 36.17V16.2521C204.878 15.1772 206.444 14.3049 208.367 14.3049C210.296 14.3049 211.856 15.1772 211.856 16.2521Z" fill="#68E1FD"/>
<path d="M178.508 16.2521V36.17C178.508 37.2448 176.942 38.1171 175.013 38.1171C173.09 38.1171 171.524 37.2448 171.524 36.17V16.2521C171.524 15.1772 173.09 14.3049 175.013 14.3049C176.942 14.3049 178.508 15.1772 178.508 16.2521Z" fill="#68E1FD"/>
<path d="M145.155 16.2521V36.17C145.155 37.2448 143.589 38.1171 141.666 38.1171C139.737 38.1171 138.171 37.2448 138.171 36.17V16.2521C138.171 15.1772 139.737 14.3049 141.666 14.3049C143.589 14.3049 145.155 15.1772 145.155 16.2521Z" fill="#68E1FD"/>
<path d="M112.516 16.2521V36.17C112.516 37.2448 110.95 38.1171 109.027 38.1171C107.098 38.1171 105.538 37.2448 105.538 36.17V16.2521C105.538 15.1772 107.098 14.3049 109.027 14.3049C110.95 14.3049 112.516 15.1772 112.516 16.2521Z" fill="#68E1FD"/>
<path d="M81.3891 26.2111H86.9381V300.872H81.3891V26.2111Z" fill="#68E1FD"/>
<path d="M81.3891 26.2111H86.9381V300.872H81.3891V26.2111Z" fill="url(#paint4_linear_108_348)"/>
<path d="M174.073 67.6306C174.071 68.2088 174.267 68.7743 174.634 69.2556C175.002 69.7369 175.524 70.1124 176.136 70.3346C176.748 70.5568 177.422 70.6158 178.073 70.504C178.723 70.3922 179.321 70.1147 179.791 69.7066C180.26 69.2985 180.581 68.7781 180.711 68.2112C180.842 67.6444 180.776 67.0565 180.524 66.5219C180.271 65.9874 179.842 65.5301 179.292 65.2081C178.741 64.886 178.094 64.7136 177.431 64.7125C176.542 64.7125 175.69 65.0196 175.06 65.5666C174.431 66.1135 174.076 66.8558 174.073 67.6306Z" fill="url(#paint5_linear_108_348)"/>
<path d="M174.073 105.987C174.071 106.565 174.267 107.13 174.634 107.612C175.002 108.093 175.524 108.468 176.136 108.691C176.748 108.913 177.422 108.972 178.073 108.86C178.723 108.748 179.321 108.471 179.791 108.063C180.26 107.654 180.581 107.134 180.711 106.567C180.842 106 180.776 105.412 180.524 104.878C180.271 104.343 179.842 103.886 179.292 103.564C178.741 103.242 178.094 103.07 177.431 103.068C176.542 103.068 175.69 103.376 175.06 103.923C174.431 104.469 174.076 105.212 174.073 105.987Z" fill="url(#paint6_linear_108_348)"/>
<path d="M165.886 105.987C165.885 106.565 166.08 107.13 166.448 107.612C166.815 108.093 167.338 108.468 167.95 108.691C168.562 108.913 169.236 108.972 169.886 108.86C170.537 108.748 171.134 108.471 171.604 108.063C172.074 107.654 172.394 107.134 172.525 106.567C172.655 106 172.59 105.412 172.337 104.878C172.085 104.343 171.656 103.886 171.105 103.564C170.555 103.242 169.907 103.07 169.244 103.068C168.356 103.068 167.503 103.376 166.874 103.923C166.244 104.469 165.889 105.212 165.886 105.987Z" fill="url(#paint7_linear_108_348)"/>
<path d="M157.652 105.987C157.651 106.565 157.846 107.13 158.214 107.612C158.581 108.093 159.104 108.468 159.716 108.691C160.328 108.913 161.002 108.972 161.652 108.86C162.303 108.748 162.9 108.471 163.37 108.063C163.84 107.654 164.16 107.134 164.29 106.567C164.421 106 164.356 105.412 164.103 104.878C163.85 104.343 163.422 103.886 162.871 103.564C162.321 103.242 161.673 103.07 161.01 103.068C160.121 103.068 159.269 103.376 158.64 103.923C158.01 104.469 157.655 105.212 157.652 105.987Z" fill="url(#paint8_linear_108_348)"/>
<path d="M174.073 183.239C174.073 183.817 174.269 184.382 174.638 184.863C175.006 185.344 175.529 185.718 176.142 185.94C176.754 186.161 177.428 186.219 178.079 186.106C178.729 185.993 179.326 185.715 179.795 185.306C180.264 184.897 180.583 184.376 180.712 183.809C180.842 183.242 180.775 182.654 180.522 182.12C180.268 181.586 179.838 181.129 179.287 180.808C178.736 180.487 178.088 180.315 177.425 180.315C176.537 180.315 175.686 180.623 175.059 181.17C174.431 181.717 174.079 182.46 174.079 183.234L174.073 183.239Z" fill="url(#paint9_linear_108_348)"/>
<path d="M310.124 186.157C308.276 186.157 306.778 184.85 306.778 183.239C306.778 181.627 308.276 180.321 310.124 180.321C311.972 180.321 313.47 181.627 313.47 183.239C313.47 184.85 311.972 186.157 310.124 186.157Z" fill="#FF2235"/>
<path d="M165.886 183.239C165.886 183.817 166.083 184.382 166.451 184.863C166.819 185.344 167.343 185.718 167.955 185.94C168.568 186.161 169.242 186.219 169.892 186.106C170.542 185.993 171.14 185.715 171.608 185.306C172.077 184.897 172.396 184.376 172.526 183.809C172.655 183.242 172.589 182.654 172.335 182.12C172.081 181.586 171.652 181.129 171.1 180.808C170.549 180.487 169.901 180.315 169.238 180.315C168.351 180.315 167.5 180.623 166.872 181.17C166.245 181.717 165.892 182.46 165.892 183.234L165.886 183.239Z" fill="url(#paint10_linear_108_348)"/>
<path d="M157.652 183.239C157.652 183.817 157.849 184.382 158.217 184.863C158.585 185.344 159.109 185.718 159.721 185.94C160.334 186.161 161.008 186.219 161.658 186.106C162.308 185.993 162.905 185.715 163.374 185.306C163.843 184.897 164.162 184.376 164.292 183.809C164.421 183.242 164.355 182.654 164.101 182.12C163.847 181.586 163.417 181.129 162.866 180.808C162.315 180.487 161.667 180.315 161.004 180.315C160.117 180.315 159.265 180.623 158.638 181.17C158.01 181.717 157.658 182.46 157.658 183.234L157.652 183.239Z" fill="url(#paint11_linear_108_348)"/>
<path d="M25.2264 104.73C26.1612 108.064 24.9109 112.685 26.6851 115.743C29.6621 120.884 38.3666 124.295 39.6526 129.939C39.73 130.266 49.4169 134.337 54.4122 132.945C57.0259 132.224 58.3536 130.001 56.3412 124.975C55.7101 123.417 52.1735 122.836 51.2209 121.387L51.4174 121.257C56.2519 118.074 56.7759 111.33 55.7756 106.828C54.7754 102.326 52.4832 98.0007 50.0242 93.8884C48.1309 90.721 43.856 89.0024 39.7598 89.0595C34.6097 89.1374 29.1738 90.9339 26.4946 94.7711C24.4465 97.6944 24.2976 101.397 25.2264 104.73Z" fill="url(#paint12_linear_108_348)"/>
<path d="M49.0181 80.4817C51.6556 81.6967 54.4599 83.1298 57.413 82.7404C57.4893 83.3589 57.3738 83.984 57.0785 84.5503C56.7831 85.1166 56.3188 85.6033 55.734 85.9596L57.5678 86.3179C57.6432 86.3226 57.7165 86.3418 57.7823 86.3741C57.8482 86.4064 57.9051 86.4511 57.9489 86.5048C57.9718 86.5628 57.98 86.6244 57.9728 86.6854C57.9656 86.7464 57.9432 86.8053 57.9072 86.8579C57.4559 87.7757 56.7145 88.5627 55.7697 89.127C56.0972 89.7397 57.282 89.6047 57.6869 90.1654C57.7721 90.3284 57.8162 90.5055 57.8162 90.6847C57.8162 90.8638 57.7721 91.0409 57.6869 91.2039C57.2778 92.1723 56.5788 93.0275 55.6626 93.6807C56.7581 94.7191 56.0734 96.6403 54.5611 97.1128C53.7835 97.3021 52.9524 97.2254 52.2375 96.8982C51.5227 96.5711 50.9781 96.0182 50.7149 95.3526C50.6473 95.9532 50.8061 96.5566 51.1674 97.0713C46.1721 97.7567 40.8315 98.4005 36.2352 96.552C36.4505 96.967 36.568 97.4155 36.5805 97.8709C35.4714 98.1737 34.2947 98.2379 33.1511 98.0578C32.9129 100.197 33.133 102.355 33.8001 104.424C34.2109 105.711 34.8003 106.958 35.0623 108.271C35.405 109.602 35.1334 110.997 34.3061 112.155C33.5143 112.093 32.9546 111.444 32.6509 110.805C32.4319 110.14 32.1009 109.506 31.6686 108.925C30.4778 107.71 28.001 108.157 27.0424 109.502C26.0838 110.847 26.4471 112.654 27.3639 114.009C27.9307 114.808 28.6798 115.497 29.5648 116.033C30.4497 116.569 31.4515 116.94 32.508 117.124C32.3354 118.573 32.1568 120.022 31.9841 121.465C28.8464 118.869 25.3337 116.641 22.5115 113.801C19.6894 110.961 17.552 107.326 17.9152 103.577C18.1354 101.267 19.2905 99.0703 19.3798 96.7494C19.4215 95.7109 19.2429 94.6464 19.2905 93.5976C19.4011 91.9263 20.0723 90.3203 21.2208 88.9789C22.3693 87.6376 23.9444 86.6202 25.7504 86.0531C27.2687 85.6013 28.9417 85.4715 30.2873 84.7083C31.9603 83.7632 32.8296 82.003 34.4907 81.0373C36.2768 79.9988 39.0513 79.573 41.1292 79.059C43.8323 78.4047 46.6425 79.3965 49.0181 80.4817Z" fill="#3F3D56"/>
<path d="M86.4737 129.612C86.6861 129.725 86.8689 129.876 87.0104 130.055C87.1519 130.234 87.249 130.437 87.2953 130.65C87.2717 130.874 87.1655 131.085 86.9927 131.252C86.8198 131.418 86.5897 131.532 86.3367 131.575C85.8277 131.653 85.3051 131.631 84.8066 131.512L81.782 130.993C83.4148 131.789 84.7705 132.955 85.7056 134.368C85.8159 134.531 85.8695 134.718 85.86 134.907C85.8505 135.096 85.7782 135.279 85.652 135.432C85.2472 135.879 84.5625 135.703 84.0147 135.516L81.3891 134.602L83.1752 136.113C83.7307 136.548 84.2154 137.048 84.6161 137.598C84.7896 137.855 84.918 138.133 84.9971 138.423C85.0461 138.606 85.0112 138.799 84.9 138.96C84.7889 139.121 84.6101 139.237 84.4017 139.285C84.2659 139.322 84.1207 139.322 83.985 139.285C82.8936 139.015 81.8794 138.548 81.008 137.914C81.6522 138.705 82.3712 139.446 83.1574 140.132C83.944 140.822 84.3886 141.754 84.3958 142.728C84.3925 142.832 84.3531 142.934 84.2826 143.019C84.1951 143.096 84.0791 143.144 83.9552 143.154C82.9847 143.294 82.1035 142.676 81.3712 142.115L78.6741 139.981C78.2396 139.671 77.8569 139.309 77.5369 138.906C77.3582 138.673 77.2572 138.402 77.2452 138.122C77.2725 137.848 77.4231 137.595 77.6642 137.418C77.9053 137.241 78.2171 137.154 78.5312 137.177C78.7218 137.194 78.9053 137.249 79.0671 137.338C78.9897 136.886 78.7872 136.466 78.6622 136.024C78.5082 135.589 78.5421 135.12 78.7575 134.706C78.8733 134.503 79.0727 134.346 79.3155 134.266C79.5584 134.186 79.8269 134.189 80.0673 134.275C79.7514 133.734 79.5497 133.148 79.4719 132.546C79.4405 132.241 79.5054 131.935 79.6598 131.66C79.8141 131.385 80.0519 131.153 80.3472 130.988C80.5093 130.93 80.6584 130.847 80.7877 130.744C81.0259 130.489 80.8354 130.126 80.7341 129.809C80.6563 129.623 80.6214 129.425 80.6313 129.226C80.6413 129.028 80.6959 128.833 80.7921 128.654C80.8883 128.474 81.0242 128.312 81.192 128.178C81.3598 128.044 81.5562 127.94 81.7701 127.872C82.0105 127.798 82.2663 127.77 82.5203 127.789C84.0564 127.93 85.3365 128.771 86.4737 129.612Z" fill="url(#paint13_linear_108_348)"/>
<path d="M37.6224 149.12C30.7755 143.844 22.2972 147.842 25.2741 155.376C31.7103 171.675 45.1838 209.019 57.9786 209.019C74.6494 209.019 81.3892 183.239 81.3892 183.239L73.6908 169.65C73.6908 169.65 62.8013 190.487 57.3178 184.848C51.8343 179.209 48.5953 157.848 37.938 149.364L37.6224 149.12Z" fill="#FDA768"/>
<path d="M76.2151 168.752C76.3163 167.543 76.3402 166.329 76.2866 165.117C76.3223 159.828 78.113 154.662 81.4426 150.241C81.7934 150.68 81.9441 151.217 81.8653 151.747L81.776 165.538C81.7232 166.682 81.811 167.827 82.038 168.955C82.2404 169.775 82.5857 170.559 82.8537 171.369C83.4197 173.053 83.6216 174.813 83.449 176.561C83.3977 177.5 83.1069 178.417 82.5976 179.246C82.3359 179.657 81.9665 180.009 81.5196 180.272C81.0727 180.536 80.5608 180.703 80.0256 180.762C79.6743 180.762 78.2394 178.166 78.0311 177.813C77.392 176.774 76.7966 175.727 76.2449 174.671C75.8341 173.872 74.9589 172.693 75.1137 171.795C75.2863 170.787 76.0722 169.858 76.2151 168.752Z" fill="url(#paint14_linear_108_348)"/>
<path d="M44.3978 124.908C45.8387 126.32 47.2676 127.738 48.7084 129.155C49.809 130.363 51.1187 131.414 52.5903 132.27C53.1619 132.565 53.7741 132.796 54.4122 132.956C57.0259 132.234 58.3536 130.012 56.3412 124.986C55.7101 123.428 52.1735 122.846 51.2209 121.398L51.4174 121.268C50.733 121.549 50.011 121.755 49.2681 121.881C47.7201 122.083 43.9096 121.034 43.4393 123.033C43.2726 123.724 43.8322 124.373 44.3978 124.908Z" fill="url(#paint15_linear_108_348)"/>
<path d="M194.262 233.987L200.263 242.118C200.532 242.48 200.953 242.735 201.437 242.827C201.92 242.918 202.425 242.839 202.841 242.606C202.989 242.52 203.123 242.417 203.24 242.3L219.768 225.684C220.002 225.45 220.154 225.162 220.206 224.854C220.257 224.547 220.206 224.233 220.059 223.95C219.911 223.667 219.673 223.427 219.374 223.258C219.074 223.09 218.725 223 218.369 223H218.232C217.959 223 217.69 223.051 217.443 223.152C217.196 223.252 216.978 223.399 216.803 223.582L203.871 237.082C203.557 237.41 203.106 237.617 202.618 237.657C202.129 237.697 201.642 237.567 201.263 237.295C201.12 237.19 200.996 237.067 200.894 236.931L197.376 232.258C197.18 231.999 196.903 231.795 196.578 231.669C196.253 231.543 195.893 231.5 195.542 231.547C195.245 231.591 194.965 231.697 194.726 231.856C194.487 232.016 194.296 232.224 194.17 232.462C194.044 232.7 193.987 232.962 194.003 233.224C194.019 233.486 194.107 233.741 194.262 233.966V233.987Z" fill="#88BA36"/>
<path d="M289.78 274.775L282.224 281.26C281.959 281.489 281.777 281.781 281.702 282.1C281.627 282.419 281.663 282.75 281.805 283.051C281.947 283.353 282.188 283.61 282.498 283.791C282.808 283.973 283.173 284.069 283.546 284.069H283.868C284.367 284.069 284.846 283.898 285.201 283.592L292.554 277.174C292.908 276.867 293.386 276.695 293.885 276.695C294.384 276.695 294.862 276.867 295.216 277.174L302.569 283.592C302.743 283.743 302.95 283.864 303.178 283.946C303.406 284.028 303.65 284.07 303.896 284.069H304.224C304.597 284.069 304.962 283.973 305.272 283.791C305.582 283.61 305.823 283.353 305.965 283.051C306.107 282.75 306.143 282.419 306.068 282.1C305.993 281.781 305.811 281.489 305.546 281.26L297.984 274.775C297.634 274.469 297.437 274.055 297.437 273.622C297.437 273.19 297.634 272.775 297.984 272.47L305.617 265.813C305.879 265.584 306.057 265.292 306.13 264.974C306.202 264.656 306.164 264.327 306.022 264.028C305.881 263.729 305.64 263.473 305.332 263.292C305.023 263.112 304.661 263.015 304.289 263.014C303.797 263.013 303.324 263.181 302.973 263.482L295.233 270.138C294.882 270.44 294.408 270.609 293.915 270.609C293.421 270.609 292.948 270.44 292.596 270.138L284.856 263.482C284.505 263.181 284.032 263.013 283.54 263.014C283.168 263.014 282.805 263.11 282.495 263.29C282.186 263.47 281.945 263.726 281.802 264.025C281.659 264.325 281.622 264.654 281.694 264.973C281.766 265.291 281.944 265.583 282.206 265.813L289.839 272.47C290.185 272.779 290.376 273.196 290.369 273.629C290.362 274.061 290.159 274.473 289.804 274.775H289.78Z" fill="#88BA36"/>
<path d="M357.159 254.385H355.314L354.391 290.762L355.314 284.77H357.159V254.385Z" fill="#68FD9B"/>
<path d="M355.314 267.646V267.687C355.314 268.825 355.778 269.962 356.272 271.322C359.523 272.142 361.69 272.802 364.882 269.925C368.073 267.049 371.365 261.488 370.323 258.679C367.073 257.858 360.738 260.844 357.54 263.72C355.885 265.19 355.326 266.42 355.314 267.646Z" fill="#68FD9B"/>
<path d="M345.794 269.946C348.723 272.423 350.783 272.09 353.468 271.343V284.77H355.314V254.385H353.468V264.048C353.295 263.881 353.111 263.715 352.908 263.528C349.61 260.745 343.233 257.869 340.012 258.782C339.066 261.633 342.495 267.158 345.794 269.946Z" fill="#68FD9B"/>
<path d="M345.941 269.562C348.87 272.038 350.93 271.706 353.615 270.958V284.386H355.461V254H353.615V263.663C353.443 263.497 353.258 263.331 353.056 263.144C349.757 260.361 343.381 257.484 340.16 258.398C339.213 261.249 342.643 266.773 345.941 269.562Z" fill="url(#paint16_linear_108_348)"/>
<path d="M355.314 247.048H363.554C363.554 252.152 359.868 256.29 355.32 256.29L353.379 251.757L355.314 247.048Z" fill="#68FD9B"/>
<path d="M355.171 248.818L355.314 248.907V248.387L355.171 248.818Z" fill="#68E1FD"/>
<path d="M370.913 236.637C371.955 239.446 368.662 245.012 365.465 247.884C362.268 250.755 360.107 250.106 356.862 249.28C355.82 246.471 354.933 244.555 358.13 241.679C361.327 238.802 367.662 235.817 370.913 236.637Z" fill="#68FD9B"/>
<path d="M346.383 247.92C346.657 248.154 346.925 248.361 347.187 248.548C347.824 252.941 351.223 256.29 355.314 256.29V248.907L355.171 248.818L355.314 248.382V248.901C355.501 249.018 355.7 249.119 355.909 249.203C358.838 247.723 361.208 243.013 361.017 239.01C360.827 235.007 358.517 229.087 355.468 227.8C352.539 229.279 350.628 235.328 350.801 239.337V239.633C347.425 237.613 343.061 236.066 340.578 236.767C339.655 239.612 343.09 245.132 346.383 247.92Z" fill="#68FD9B"/>
<path d="M346.072 247.774C346.351 248.004 346.625 248.208 346.892 248.391C347.541 252.709 351.006 256 355.175 256V248.744L355.03 248.657L355.175 248.228V248.738C355.366 248.853 355.569 248.952 355.782 249.034C358.768 247.58 361.183 242.952 360.989 239.017C360.795 235.083 358.44 229.266 355.333 228C352.347 229.454 350.399 235.399 350.575 239.339V239.63C347.134 237.645 342.686 236.124 340.155 236.813C339.215 239.609 342.716 245.034 346.072 247.774Z" fill="url(#paint17_linear_108_348)"/>
<path d="M355.171 248.818L355.314 248.907V248.387L355.171 248.818Z" fill="#68E1FD"/>
<path d="M371.598 280.133L368.692 300.612H355.254L349.765 288.96L355.254 279.562L371.598 280.133Z" fill="#A96762"/>
<path d="M338.905 280.133L341.81 300.612H355.254V279.562L338.905 280.133Z" fill="#A96762"/>
<path d="M349.265 279.703L349.413 279.765L353.974 281.738L355.218 282.288H373.372C373.92 282.288 374.445 282.099 374.833 281.761C375.22 281.423 375.438 280.964 375.438 280.487V275.907C375.44 275.695 375.394 275.484 375.304 275.288C375.213 275.091 375.078 274.912 374.908 274.76C374.738 274.609 374.535 274.488 374.311 274.405C374.087 274.322 373.847 274.279 373.604 274.276H373.431L355.218 274.308L349.265 279.703Z" fill="#E58149"/>
<path d="M337.131 282.288H355.254V274.105H337.131C336.583 274.105 336.057 274.295 335.67 274.633C335.282 274.971 335.065 275.429 335.065 275.907V280.487C335.065 280.964 335.282 281.423 335.67 281.761C336.057 282.099 336.583 282.288 337.131 282.288Z" fill="#E58149"/>
<path d="M335 275.802V280.381C335 280.859 335.218 281.318 335.605 281.655C335.993 281.993 336.518 282.183 337.066 282.183H355.154V274H337.036C336.493 274.007 335.976 274.2 335.595 274.537C335.214 274.874 335 275.328 335 275.802Z" fill="url(#paint18_linear_108_348)"/>
<path opacity="0.18" d="M367.126 300.638L401.277 306.35C401.565 306.352 401.849 306.406 402.112 306.508C402.375 306.61 402.611 306.759 402.805 306.944C402.999 307.129 403.147 307.347 403.241 307.584C403.334 307.821 403.371 308.073 403.348 308.323C403.325 308.573 403.243 308.817 403.107 309.038C402.972 309.259 402.786 309.454 402.56 309.61C402.335 309.766 402.075 309.879 401.797 309.944C401.519 310.008 401.228 310.022 400.944 309.984H400.843H15.1168C14.5734 310.004 14.0426 309.838 13.6372 309.522C13.2319 309.206 12.9839 308.764 12.9459 308.291C12.9079 307.818 13.0829 307.35 13.4338 306.988C13.7847 306.625 14.2838 306.396 14.8251 306.35L64.6052 300.887H64.891L366.692 300.628C366.836 300.618 366.982 300.622 367.126 300.638Z" fill="#1D2741"/>
<path d="M355.04 283V301.324H368.483L371.085 283H355.04Z" fill="url(#paint19_linear_108_348)"/>
<path d="M339 283L341.602 301.324H355.04V283H339Z" fill="url(#paint20_linear_108_348)"/>
</g>
<defs>
<linearGradient id="paint0_linear_108_348" x1="55.454" y1="147.178" x2="137.188" y2="323.531" gradientUnits="userSpaceOnUse">
<stop stop-opacity="0"/>
<stop offset="0.91" stop-opacity="0.8"/>
<stop offset="1"/>
</linearGradient>
<linearGradient id="paint1_linear_108_348" x1="193.393" y1="-36.0402" x2="202.026" y2="99.8807" gradientUnits="userSpaceOnUse">
<stop stop-opacity="0"/>
<stop offset="0.91" stop-opacity="0.8"/>
<stop offset="1"/>
</linearGradient>
<linearGradient id="paint2_linear_108_348" x1="222.102" y1="10.8832" x2="220.058" y2="47.1724" gradientUnits="userSpaceOnUse">
<stop offset="0.01"/>
<stop offset="0.1" stop-opacity="0.77"/>
<stop offset="0.99" stop-opacity="0"/>
</linearGradient>
<linearGradient id="paint3_linear_108_348" x1="252.175" y1="177.558" x2="592.187" y2="178.705" gradientUnits="userSpaceOnUse">
<stop stop-opacity="0"/>
<stop offset="0.91" stop-opacity="0.8"/>
<stop offset="1"/>
</linearGradient>
<linearGradient id="paint4_linear_108_348" x1="11.9612" y1="153.746" x2="281.529" y2="201.833" gradientUnits="userSpaceOnUse">
<stop stop-opacity="0"/>
<stop offset="0.91" stop-opacity="0.8"/>
<stop offset="1"/>
</linearGradient>
<linearGradient id="paint5_linear_108_348" x1="177.609" y1="65.1798" x2="176.757" y2="80.009" gradientUnits="userSpaceOnUse">
<stop stop-color="#183866"/>
<stop offset="1" stop-color="#1A7FC1"/>
</linearGradient>
<linearGradient id="paint6_linear_108_348" x1="177.609" y1="103.536" x2="176.757" y2="118.37" gradientUnits="userSpaceOnUse">
<stop stop-color="#183866"/>
<stop offset="1" stop-color="#1A7FC1"/>
</linearGradient>
<linearGradient id="paint7_linear_108_348" x1="169.423" y1="103.536" x2="168.575" y2="118.37" gradientUnits="userSpaceOnUse">
<stop stop-color="#183866"/>
<stop offset="1" stop-color="#1A7FC1"/>
</linearGradient>
<linearGradient id="paint8_linear_108_348" x1="161.189" y1="103.536" x2="160.341" y2="118.37" gradientUnits="userSpaceOnUse">
<stop stop-color="#183866"/>
<stop offset="1" stop-color="#1A7FC1"/>
</linearGradient>
<linearGradient id="paint9_linear_108_348" x1="177.615" y1="180.783" x2="176.763" y2="195.617" gradientUnits="userSpaceOnUse">
<stop stop-color="#183866"/>
<stop offset="1" stop-color="#1A7FC1"/>
</linearGradient>
<linearGradient id="paint10_linear_108_348" x1="169.423" y1="180.783" x2="168.575" y2="195.617" gradientUnits="userSpaceOnUse">
<stop stop-color="#183866"/>
<stop offset="1" stop-color="#1A7FC1"/>
</linearGradient>
<linearGradient id="paint11_linear_108_348" x1="161.189" y1="180.783" x2="160.341" y2="195.617" gradientUnits="userSpaceOnUse">
<stop stop-color="#183866"/>
<stop offset="1" stop-color="#1A7FC1"/>
</linearGradient>
<linearGradient id="paint12_linear_108_348" x1="16.3492" y1="120.884" x2="69.4138" y2="97.1558" gradientUnits="userSpaceOnUse">
<stop stop-color="#D51258"/>
<stop offset="0.16" stop-color="#EDCBD5"/>
<stop offset="0.42" stop-color="#EFD4D1"/>
<stop offset="0.7" stop-color="#F2EAC9"/>
</linearGradient>
<linearGradient id="paint13_linear_108_348" x1="87.2953" y1="135.479" x2="77.2154" y2="135.479" gradientUnits="userSpaceOnUse">
<stop stop-color="#ECC4D7"/>
<stop offset="0.42" stop-color="#EFD4D1"/>
<stop offset="1" stop-color="#F2EAC9"/>
</linearGradient>
<linearGradient id="paint14_linear_108_348" x1="83.5086" y1="165.502" x2="75.0958" y2="165.502" gradientUnits="userSpaceOnUse">
<stop stop-color="#ECC4D7"/>
<stop offset="0.42" stop-color="#EFD4D1"/>
<stop offset="1" stop-color="#F2EAC9"/>
</linearGradient>
<linearGradient id="paint15_linear_108_348" x1="54.5789" y1="129.176" x2="73.9787" y2="155.3" gradientUnits="userSpaceOnUse">
<stop stop-color="#ECC4D7"/>
<stop offset="0.42" stop-color="#EFD4D1"/>
<stop offset="1" stop-color="#F2EAC9"/>
</linearGradient>
<linearGradient id="paint16_linear_108_348" x1="351.555" y1="285.705" x2="348.739" y2="257.837" gradientUnits="userSpaceOnUse">
<stop offset="0.1" stop-opacity="0.77"/>
<stop offset="0.99" stop-opacity="0"/>
</linearGradient>
<linearGradient id="paint17_linear_108_348" x1="336.969" y1="243.498" x2="356.205" y2="241.269" gradientUnits="userSpaceOnUse">
<stop offset="0.1" stop-opacity="0.77"/>
<stop offset="0.99" stop-opacity="0"/>
</linearGradient>
<linearGradient id="paint18_linear_108_348" x1="339.519" y1="260.583" x2="346.14" y2="286.802" gradientUnits="userSpaceOnUse">
<stop offset="0.1" stop-color="#CC6830" stop-opacity="0.77"/>
<stop offset="0.99" stop-opacity="0"/>
</linearGradient>
<linearGradient id="paint19_linear_108_348" x1="363.298" y1="276.032" x2="362.786" y2="295.726" gradientUnits="userSpaceOnUse">
<stop offset="0.01"/>
<stop offset="0.1" stop-opacity="0.77"/>
<stop offset="0.99" stop-opacity="0"/>
</linearGradient>
<linearGradient id="paint20_linear_108_348" x1="340.191" y1="278.882" x2="351.907" y2="304.047" gradientUnits="userSpaceOnUse">
<stop offset="0.01"/>
<stop offset="0.1" stop-opacity="0.77"/>
<stop offset="0.99" stop-opacity="0"/>
</linearGradient>
<clipPath id="clip0_108_348">
<rect width="435" height="310" fill="white" transform="matrix(-1 0 0 1 435 0)"/>
</clipPath>
</defs>
</svg>
