<svg width="577" height="383" viewBox="0 0 577 383" fill="none" xmlns="http://www.w3.org/2000/svg">
<g clip-path="url(#clip0_109_511)">
<path d="M188.038 88.5748L170.568 89.2778C170.568 89.2778 153.631 86.2598 150.806 87.7991C148.301 89.1566 137.321 92.3078 138.133 93.8592C138.946 95.4106 148.607 92.9623 148.607 92.9623C148.607 92.9623 144.703 94.5985 146.355 95.7257C148.008 96.8529 153.951 93.1441 155.803 93.7017C157.656 94.2592 192.129 95.9803 192.129 95.9803" fill="#FAA590"/>
<path d="M169.569 93.8108C164.956 94.5422 160.213 94.1747 155.803 92.7442C154.99 92.4897 154.644 93.6533 155.443 93.9563C160.085 95.4442 165.071 95.8117 169.915 95.0229C170.768 94.8532 170.408 93.6775 169.569 93.8108Z" fill="#FAA590"/>
<path d="M255.399 62.0435C255.399 62.0435 269.258 67.0249 269.484 76.1151C269.711 85.2053 271.563 86.684 279.439 88.7929C287.314 90.9018 295.03 92.429 295.429 97.6649C295.829 102.901 282.224 107.797 274.695 110.294C267.166 112.791 243.593 90.9988 245.085 82.5267" fill="#E8601C"/>
<path d="M18.5227 253.422L263.594 382.115C267.273 384.041 271.448 385.045 275.692 385.023C279.937 385.002 284.099 383.957 287.754 381.994L482.601 277.021C483.526 276.522 484.293 275.812 484.825 274.962C485.358 274.112 485.638 273.151 485.638 272.172C485.638 271.194 485.358 270.233 484.825 269.383C484.293 268.533 483.526 267.823 482.601 267.324C439.293 244.611 256.772 148.958 227.082 133.638C225.855 132.993 224.462 132.654 223.045 132.654C221.627 132.654 220.234 132.993 219.007 133.638L18.4827 240.72C17.2622 241.37 16.2504 242.299 15.5487 243.415C14.8469 244.532 14.4796 245.796 14.4837 247.082C14.4877 248.368 14.8629 249.63 15.5717 250.743C16.2805 251.856 17.2981 252.78 18.5227 253.422Z" fill="#DAF2E9"/>
<path opacity="0.48" d="M203.589 350.603L128.672 312.896L200.524 275.13L279.838 307.503L224.857 336.943C216.435 341.658 211.878 345.742 203.589 350.603Z" fill="url(#paint0_linear_109_511)"/>
<path opacity="0.48" d="M433.709 282.075L354.422 249.762L282.57 287.468L358.14 324.774L433.709 282.075Z" fill="url(#paint1_linear_109_511)"/>
<path opacity="0.48" d="M63.7765 275.966L23.7996 253.774L91.2673 221.667L135.335 235.206L84.178 264.028C75.7562 268.682 72.065 271.106 63.7765 275.966Z" fill="url(#paint2_linear_109_511)"/>
<path d="M386.497 179.404L395.705 183.876L370.572 205.402L348.412 211.729L341.03 202.626" fill="#FFE8BC"/>
<path d="M351.797 207.147L343.255 202.723L386.497 179.404L385.484 178.871L341.03 202.626V263.3L350.717 268.318L354.422 264.815" fill="#54A0FA"/>
<path opacity="0.42" d="M351.797 207.147L343.255 202.723L386.497 179.404L385.484 178.871L341.03 202.626V263.3L350.717 268.318L354.422 264.815" fill="#1371A5"/>
<path d="M395.705 183.876L350.717 207.717V268.318L396.411 243.484L395.705 183.876Z" fill="#54A0FA"/>
<path d="M352.423 203.741L355.168 205.317V218.237L356.914 216.213L358.14 217.474V203.79L355.568 202.105L352.423 203.741Z" fill="#E85858"/>
<path d="M399.343 186.385L408.551 190.846L383.419 212.371L361.258 218.71L353.876 209.608" fill="#FFE8BC"/>
<path d="M364.643 214.128L356.101 209.705L399.343 186.385L398.33 185.852L353.876 209.608V270.282L363.563 275.299L367.268 271.785" fill="#54A0FA"/>
<path opacity="0.42" d="M364.643 214.128L356.101 209.705L399.343 186.385L398.33 185.852L353.876 209.608V270.282L363.563 275.299L367.268 271.785" fill="#1371A5"/>
<path d="M408.551 190.846L363.563 214.698V275.299L409.257 250.465L408.551 190.846Z" fill="#54A0FA"/>
<path d="M365.269 210.711L368.014 212.298V225.219L369.76 223.182L370.986 224.443V210.759L368.414 209.087L365.269 210.711Z" fill="#E85858"/>
<path d="M413.601 192.76L422.796 197.221L397.664 218.746L375.503 225.085L368.134 215.983" fill="#FFE8BC"/>
<path d="M378.901 220.504L370.346 216.08L413.601 192.76L412.575 192.227L368.134 215.983V276.657L377.822 281.675L381.526 278.16" fill="#54A0FA"/>
<path opacity="0.42" d="M378.901 220.504L370.346 216.08L413.601 192.76L412.575 192.227L368.134 215.983V276.657L377.822 281.675L381.526 278.16" fill="#1371A5"/>
<path d="M422.796 197.221L377.822 221.073V281.675L423.515 256.84L422.796 197.221Z" fill="#54A0FA"/>
<path d="M379.528 217.098L382.273 218.674V231.594L384.018 229.57L385.244 230.818V217.146L382.672 215.462L379.528 217.098Z" fill="#E85858"/>
<path d="M370.653 278.523C370.493 278.523 369.013 277.99 370.253 277.13C371.073 276.549 371.932 276.015 372.825 275.53" fill="#E27825"/>
<path d="M370.652 271.421C370.652 271.421 371.892 275.59 370.652 277.82L387.509 286.826L404.18 295.601V289.117" fill="#FFE8BC"/>
<path d="M370.093 270.779C370.093 271.07 370.133 271.36 370.213 271.651L404.18 289.129V295.613L370.239 277.554C370.239 277.808 370.239 278.063 370.239 278.317L405.486 296.946V288.111L370.093 270.779Z" fill="#E27825"/>
<path d="M370.279 270.888L405.299 289.068L454.404 262.876L420.13 244.999C419.613 244.724 419.024 244.579 418.425 244.579C417.825 244.579 417.237 244.724 416.719 244.999L370.213 270.063C370.131 270.107 370.065 270.17 370.021 270.247C369.977 270.323 369.957 270.409 369.964 270.494C369.971 270.58 370.004 270.662 370.06 270.732C370.116 270.801 370.192 270.855 370.279 270.888Z" fill="#FDBA45"/>
<path d="M405.486 296.946C405.486 296.946 454.604 270.633 454.457 270.512C454.311 270.391 454.457 262.9 454.457 262.9L405.312 289.141L405.486 296.946Z" fill="#E27825"/>
<path d="M370.279 270.088C370.137 270.183 370.018 270.304 369.93 270.444C369.843 270.584 369.79 270.739 369.773 270.9C369.773 271.445 370.346 271.712 370.572 271.821" fill="#FDBA45"/>
<path d="M370.786 266.646C370.626 266.646 369.147 266.112 370.386 265.252C371.207 264.671 372.066 264.137 372.958 263.652" fill="#E27825"/>
<path d="M370.786 259.519C370.786 259.519 372.025 263.688 370.786 265.918L387.643 274.924L404.313 283.699V277.214" fill="#FFE8BC"/>
<path d="M370.226 258.864C370.226 259.155 370.266 259.446 370.346 259.737L404.313 277.214V283.699L370.373 265.7C370.373 265.955 370.373 266.209 370.373 266.464L405.633 285.02V276.184L370.226 258.864Z" fill="#E27825"/>
<path d="M370.453 258.986L405.473 277.166L454.618 250.926L420.344 233.048C419.826 232.773 419.238 232.629 418.638 232.629C418.039 232.629 417.45 232.773 416.933 233.048L370.453 258.161C370.369 258.2 370.298 258.258 370.248 258.331C370.199 258.404 370.173 258.488 370.173 258.573C370.173 258.659 370.199 258.743 370.248 258.816C370.298 258.889 370.369 258.947 370.453 258.986Z" fill="#FDBA45"/>
<path d="M405.619 285.02C405.619 285.02 454.737 258.707 454.591 258.586C454.444 258.464 454.591 250.974 454.591 250.974L405.446 277.214L405.619 285.02Z" fill="#E27825"/>
<path d="M370.453 258.161C370.31 258.257 370.191 258.378 370.104 258.518C370.017 258.658 369.963 258.813 369.947 258.973C369.947 259.519 370.52 259.785 370.746 259.895" fill="#FDBA45"/>
<path d="M370.786 254.453C370.626 254.453 369.147 253.919 370.386 253.059C371.207 252.478 372.066 251.944 372.958 251.459" fill="#E27825"/>
<path d="M370.786 247.35C370.786 247.35 372.025 251.52 370.786 253.75L387.643 262.755L404.313 271.494V265.009" fill="#FFE8BC"/>
<path d="M370.226 246.696C370.226 246.987 370.266 247.277 370.346 247.568L404.313 265.046V271.494L370.373 253.495C370.373 253.75 370.373 254.004 370.373 254.259L405.633 272.815V263.979L370.226 246.696Z" fill="#E27825"/>
<path d="M370.453 246.817L405.473 264.997L454.591 238.769L420.317 220.892C419.8 220.617 419.211 220.472 418.612 220.472C418.012 220.472 417.424 220.617 416.906 220.892L370.453 246.041C370.381 246.083 370.322 246.14 370.282 246.208C370.241 246.276 370.219 246.352 370.219 246.429C370.219 246.506 370.241 246.582 370.282 246.65C370.322 246.718 370.381 246.775 370.453 246.817Z" fill="#FDBA45"/>
<path d="M405.619 272.851C405.619 272.851 454.737 246.538 454.591 246.417C454.444 246.296 454.591 238.805 454.591 238.805L405.446 265.046L405.619 272.851Z" fill="#E27825"/>
<path d="M370.453 246.041C370.31 246.136 370.191 246.258 370.104 246.398C370.017 246.538 369.963 246.693 369.947 246.853C369.947 247.399 370.52 247.665 370.746 247.774" fill="#FDBA45"/>
<path d="M153.924 299.54C153.591 299.54 150.593 298.449 153.112 296.692C154.787 295.508 156.54 294.42 158.362 293.431" fill="#9A433A"/>
<path d="M153.924 285.068C153.924 285.068 156.443 293.553 153.924 298.098L188.238 316.448L222.178 334.313V321.114" fill="#FFE8BC"/>
<path d="M152.792 283.747C152.872 284.337 152.952 284.927 153.032 285.517L222.192 321.114V334.313L153.098 297.661C153.098 298.182 153.098 298.704 153.098 299.225L224.857 336.943V319.005L152.792 283.747Z" fill="#9A433A"/>
<path d="M153.178 283.978L224.497 321.102L324.572 267.664L254.786 231.303C253.734 230.745 252.539 230.451 251.321 230.451C250.104 230.451 248.908 230.745 247.857 231.303L153.165 282.402C153.023 282.489 152.906 282.607 152.826 282.745C152.746 282.883 152.705 283.037 152.707 283.193C152.708 283.349 152.752 283.502 152.834 283.639C152.916 283.776 153.034 283.892 153.178 283.978Z" fill="#F26250"/>
<path d="M224.857 336.943C224.857 336.943 324.799 283.371 324.559 283.117C324.319 282.862 324.559 267.615 324.559 267.615L224.484 321.053L224.857 336.943Z" fill="#9A433A"/>
<path d="M153.165 282.402C152.873 282.594 152.63 282.84 152.451 283.125C152.271 283.409 152.161 283.724 152.125 284.05C152.006 285.153 153.298 285.699 153.751 285.929" fill="#F26250"/>
<path d="M235.731 285.117C253.865 285.117 268.565 280.857 268.565 275.602C268.565 270.348 253.865 266.088 235.731 266.088C217.597 266.088 202.896 270.348 202.896 275.602C202.896 280.857 217.597 285.117 235.731 285.117Z" fill="#9A433A"/>
<path d="M295.643 144.946C295.643 144.946 302.425 139.031 307.569 139.092C312.713 139.153 321.761 140.304 322.441 137.565C323.12 134.826 313.859 130.62 310.288 129.553C306.716 128.487 295.629 134.498 294.87 133.396C294.11 132.293 301.692 127.335 301.692 127.335C301.692 127.335 296.642 125.481 296.469 125.748C296.296 126.014 287.554 135.056 285.928 139.298C284.303 143.54 295.643 144.946 295.643 144.946Z" fill="#1A1A1A"/>
<path d="M230.4 234.309C230.4 234.309 230.094 242.902 226.403 246.162C222.711 249.423 215.236 254.38 216.875 256.792C218.514 259.204 228.428 256.295 231.813 254.768C235.198 253.241 238.476 241.847 239.941 242.126C241.407 242.405 239.755 250.889 239.755 250.889C239.755 250.889 244.819 248.998 244.739 248.671C244.659 248.344 243.952 236.26 241.834 232.176C239.715 228.091 230.4 234.309 230.4 234.309Z" fill="#1A1A1A"/>
<path d="M343.801 66.6614L306.01 41.924C304.137 42.7729 302.49 43.9824 301.183 45.4684C299.876 46.9544 298.941 48.6814 298.441 50.5293L336.219 75.2789C338.738 72.3943 341.323 69.5824 343.801 66.6614Z" fill="#FDDF33"/>
<path d="M304.987 48.0436C306.944 45.5724 307.311 42.7698 305.806 41.7838C304.302 40.7978 301.495 42.0017 299.538 44.4729C297.58 46.9441 297.213 49.7467 298.718 50.7327C300.223 51.7187 303.029 50.5148 304.987 48.0436Z" fill="#FDDF33"/>
<path d="M342.757 72.7954C344.714 70.3242 345.081 67.5216 343.577 66.5356C342.072 65.5496 339.265 66.7536 337.308 69.2247C335.35 71.6959 334.984 74.4985 336.488 75.4846C337.993 76.4706 340.8 75.2666 342.757 72.7954Z" fill="#FCCD35"/>
<path d="M320.068 57.7166C320.681 55.5229 317.683 54.9411 316.071 54.9169C314.749 54.7871 313.418 55.0688 312.295 55.716C311.172 56.3632 310.323 57.3377 309.888 58.4802C308.209 62.589 309.008 66.8553 306.33 70.8065C305.823 71.5459 307.036 72.3579 307.542 71.6065C307.994 70.9351 308.39 70.2342 308.728 69.5096C308.448 70.3338 308.169 71.1701 307.915 72.0064C307.885 72.1039 307.877 72.2061 307.893 72.3064C307.909 72.4067 307.949 72.5028 308.009 72.5882L307.755 73.3639C307.713 73.4858 307.708 73.6158 307.741 73.7401C307.774 73.8643 307.844 73.9781 307.942 74.0691C308.041 74.1601 308.165 74.2249 308.301 74.2565C308.437 74.2882 308.58 74.2854 308.715 74.2487L308.249 74.988C308.132 75.1343 308.084 75.3167 308.115 75.4951C308.146 75.6735 308.254 75.8334 308.415 75.9394C308.576 76.0455 308.776 76.0892 308.973 76.0607C309.169 76.0323 309.345 75.9342 309.461 75.7879L309.541 75.691C309.781 76.1152 310.434 76.3334 310.767 75.8243C312.128 73.6247 313.651 71.511 315.324 69.4975C316.551 68.358 317.464 66.9709 317.99 65.4494C318.231 64.3401 318.095 63.1903 317.6 62.1531C317.105 61.1159 316.274 60.2406 315.218 59.6438C317.15 59.6922 319.589 59.3892 320.068 57.7166Z" fill="#FAA590"/>
<path d="M210.638 83.4721C201.91 84.9266 181.495 85.2902 167.903 85.3508C165.869 94.1794 164.952 103.191 165.171 112.209C178.937 113.858 200.831 114.973 217.821 108.779L240.475 82.0298C230.501 81.469 220.49 81.9529 210.638 83.4721Z" fill="#1A1A1A"/>
<path d="M238.409 81.8602C238.476 82.3935 204.629 155.963 203.589 208.384C203.589 208.384 233.412 182.652 249.722 170.496" fill="#1A1A1A"/>
<path d="M229.201 127.844C229.321 126.717 228.135 84.4538 239.315 82.4661C250.495 80.4784 264.807 89.6898 264.9 94.7803C264.994 99.8708 255.066 130.547 247.191 130.656C239.315 130.765 229.201 127.844 229.201 127.844Z" fill="#54A0FA"/>
<path d="M229.201 113.518C226.203 116.718 207.187 164.872 207.121 176.677C207.054 188.482 229.121 234.406 231.866 235.363C234.611 236.321 240.301 233.775 241.327 231.533C242.354 229.291 228.735 182.252 228.735 182.252C228.735 182.252 246.658 144.098 244.059 134.886C241.461 125.675 229.201 113.518 229.201 113.518Z" fill="#54A0FA"/>
<path d="M239.288 127.566C239.022 128.535 240.261 170.726 245.018 176.047C249.776 181.367 261.449 182.955 267.339 178.095C273.229 173.235 298.214 144.776 295.216 142.946C293.85 142.068 292.304 141.447 290.67 141.12C289.036 140.793 287.347 140.767 285.702 141.043C282.09 141.468 260.05 163.999 260.05 163.999C260.05 163.999 260.583 120.16 255.852 115.579" fill="#54A0FA"/>
<path d="M251.415 83.9327C251.415 83.9327 242.686 136.413 251.828 151.576C258.039 161.477 265.562 170.647 274.228 178.883C274.228 178.883 299.693 170.035 301.652 167.09C303.611 164.145 272.656 138.922 271.003 131.214C269.351 123.505 272.229 96.9741 267.792 93.1805C263.354 89.3869 251.415 83.9327 251.415 83.9327Z" fill="#1A1A1A"/>
<path d="M251.415 83.9327C251.415 83.9327 271.723 91.9806 278.146 90.8292C284.569 89.6777 306.223 69.8854 307.755 68.334C307.755 68.334 324.879 82.5874 326.145 88.1021C326.145 88.1021 301.013 111.858 290.539 114.876C280.065 117.894 261.582 114.452 261.582 114.452" fill="#1A1A1A"/>
<path d="M218.38 149.455C225.123 126.426 232.586 103.495 245.032 82.5146C233.412 80.4663 229.041 82.963 229.041 82.963C212.171 93.7985 179.15 185.985 179.15 185.985C179.536 194.469 198.179 205.378 202.576 207.899C206.627 188.155 212.717 168.762 218.38 149.455Z" fill="#303030"/>
<path d="M242.407 66.019C242.407 66.019 238.715 79.7027 243.406 82.757C248.097 85.8114 258.211 79.5209 259.996 73.1336C261.782 66.7462 247.377 58.8074 242.407 66.019Z" fill="#FAA590"/>
<path d="M251.961 69.8248C251.961 69.8248 251.335 74.4183 252.921 76.1152C254.506 77.812 248.403 83.3267 257.758 86.272C267.112 89.2172 263.914 71.1822 261.849 69.8369" fill="#E8601C"/>
<path d="M261.873 69.8399C262.217 68.2575 258.067 66.1761 252.602 65.191C247.137 64.2059 242.427 64.6901 242.083 66.2726C241.738 67.855 245.888 69.9364 251.353 70.9215C256.818 71.9066 261.528 71.4224 261.873 69.8399Z" fill="#1A1A1A"/>
<path d="M242.073 66.2615L244.192 57.8743L263.767 60.868L261.848 69.837" fill="#1A1A1A"/>
<path d="M232.906 54.5048L253.267 67.7522L276.014 58.4681L254.746 44.7238L232.906 54.5048Z" fill="#1A1A1A"/>
<path d="M255.413 57.0743L264.327 64.3464L262.515 71.8974C262.515 71.8974 260.956 72.7215 260.356 76.1152C261.76 76.7534 263.372 76.9001 264.887 76.5273C265.087 75.68 265.02 74.7988 264.695 73.9843C264.37 73.1698 263.799 72.455 263.048 71.9216L264.887 64.2374L255.746 56.6501C255.746 56.6501 255.333 56.5531 255.413 57.0743Z" fill="#FEDB26"/>
<path d="M71.3188 162.242C71.3188 162.242 75.8229 198.772 98.8496 201.705C121.876 204.638 131.071 171.017 130.285 162.23" fill="#FDBA45"/>
<path d="M130.325 232.212C130.325 232.212 125.821 195.645 102.794 192.712C79.7673 189.779 70.6259 223.437 71.3721 232.212" fill="#FDBA45"/>
<path d="M100.822 239.775C117.101 239.775 130.298 236.389 130.298 232.212C130.298 228.035 117.101 224.649 100.822 224.649C84.5425 224.649 71.3455 228.035 71.3455 232.212C71.3455 236.389 84.5425 239.775 100.822 239.775Z" fill="#FDBA45"/>
<path d="M100.822 172.241C117.101 172.241 130.298 168.855 130.298 164.678C130.298 160.501 117.101 157.115 100.822 157.115C84.5425 157.115 71.3455 160.501 71.3455 164.678C71.3455 168.855 84.5425 172.241 100.822 172.241Z" fill="#486B11"/>
<path d="M71.3455 164.678V162.242L73.0645 162.957L71.3455 164.678Z" fill="#486B11"/>
<path d="M130.298 162.242V164.666L128.966 165.647V163.454" fill="#486B11"/>
<path d="M100.822 169.805C117.101 169.805 130.298 166.419 130.298 162.242C130.298 158.065 117.101 154.679 100.822 154.679C84.5425 154.679 71.3455 158.065 71.3455 162.242C71.3455 166.419 84.5425 169.805 100.822 169.805Z" fill="#577F22"/>
<path d="M77.9016 178.604C77.9016 178.604 84.9375 193.573 92.1334 195.912C99.3292 198.251 108.124 198.421 114.934 192.567C119.244 188.681 122.426 183.884 124.195 178.604C121.88 177.37 119.199 176.824 116.526 177.041C113.853 177.258 111.322 178.228 109.283 179.816C101.914 185.428 100.715 186.676 95.3982 183.452C90.0812 180.228 82.3524 175.95 77.9016 178.604Z" fill="#D68B13"/>
<path d="M77.2086 230.345C77.2086 230.345 91.1739 207.317 100.822 208.699C110.469 210.08 124.181 231.315 124.181 231.315C124.181 231.315 100.822 239.775 77.2086 230.345Z" fill="#D68B13"/>
<path d="M408.231 120.475C408.231 120.475 420.69 153.333 420.131 153.745C419.571 154.158 413.188 149.491 412.615 149.746C411.106 151.402 409.713 153.143 408.444 154.957L396.851 122.548" fill="#E8601C"/>
<path d="M388.389 117.397L381.54 148.085C381.54 148.085 389.615 142.025 389.535 142.619C389.455 143.213 390.601 149.891 390.601 149.891L400.315 118.778" fill="#E8601C"/>
<path d="M401.589 129.238C410.665 128.316 416.971 118.994 415.673 108.417C414.375 97.8394 405.964 90.0118 396.887 90.9335C387.81 91.8551 381.505 101.177 382.803 111.755C384.101 122.332 392.512 130.16 401.589 129.238Z" fill="#EAB41B"/>
<path d="M399.43 129.454C408.507 128.533 414.813 119.211 413.514 108.633C412.216 98.0559 403.805 90.2283 394.728 91.15C385.652 92.0716 379.346 101.394 380.644 111.971C381.942 122.548 390.353 130.376 399.43 129.454Z" fill="#FCCD35"/>
</g>
<defs>
<linearGradient id="paint0_linear_109_511" x1="174.672" y1="343.367" x2="192.566" y2="319.1" gradientUnits="userSpaceOnUse">
<stop offset="0.01" stop-color="white" stop-opacity="0"/>
<stop offset="1" stop-color="#00A99D"/>
</linearGradient>
<linearGradient id="paint1_linear_109_511" x1="338.151" y1="312.036" x2="367.747" y2="263.227" gradientUnits="userSpaceOnUse">
<stop offset="0.01" stop-color="white" stop-opacity="0"/>
<stop offset="1" stop-color="#00A99D"/>
</linearGradient>
<linearGradient id="paint2_linear_109_511" x1="61.8576" y1="268.706" x2="88.1474" y2="225.362" gradientUnits="userSpaceOnUse">
<stop offset="0.01" stop-color="white" stop-opacity="0"/>
<stop offset="1" stop-color="#00A99D"/>
</linearGradient>
<clipPath id="clip0_109_511">
<rect width="577" height="383" fill="white"/>
</clipPath>
</defs>
</svg>
