<?xml version="1.0" encoding="iso-8859-1"?>
<!-- Uploaded to: SVG Repo, www.svgrepo.com, Generator: SVG Repo Mixer Tools -->
<svg version="1.1" id="Layer_1" xmlns="http://www.w3.org/2000/svg" xmlns:xlink="http://www.w3.org/1999/xlink" 
	 viewBox="0 0 512.032 512.032" xml:space="preserve">
<rect x="83.368" y="24.32" style="fill:#F2B851;" width="324.672" height="86"/>
<path style="fill:#E04F5F;" d="M432.712,102.624c-5.728-7.36-19.232-30.96,0.816-70.624h12.528V0H124.712
	c-37.04,0-67.184,30.208-67.184,67.312v358.24c0,30.288,8.352,53.376,24.832,68.608c17.584,16.272,38.32,17.872,45.408,17.872
	c1.328,0,2.192-0.048,2.448-0.08h324.288V102.624H432.712z M124.712,102.624c-19.392,0-35.184-15.84-35.184-35.312
	S105.304,32,124.712,32h273.872c-11.6,30.4-8.432,54.24-2.016,70.624H124.712z"/>
<polyline style="fill:#25B6D2;" points="143.208,102.624 143.208,357.664 226.536,284.064 304.312,356.32 304.312,102.624 "/>
</svg>