<svg width="443" height="311" viewBox="0 0 443 311" fill="none" xmlns="http://www.w3.org/2000/svg">
<g clip-path="url(#clip0_108_311)">
<path opacity="0.18" d="M98.389 33.7966C83.2386 49.4397 73.8038 68.889 60.7465 85.9763C51.0863 98.7446 39.3008 110.177 29.4797 122.891C9.90169 148.211 -1.91594 179.079 0.2415 209.92C2.39894 240.761 19.5619 271.21 48.1721 288.095C65.7376 298.475 86.5231 303.401 107.196 306.6C176.797 317.397 251.712 309.083 311.187 274.652C321.394 268.74 331.167 262.073 342.244 257.592C370.693 246.065 407.595 248.738 428.22 227.574C440.633 214.833 443.37 196.612 442.952 179.619C442.453 159.212 437.687 137.778 422.858 122.472C403.538 102.402 371.982 97.0304 345.867 84.6806C320.412 72.7087 299.884 53.8802 278.02 37.0629C225.42 -3.41492 149.749 -19.2335 98.389 33.7966Z" fill="#30C1FF"/>
<path d="M350.745 201.309C350.748 202.558 350.446 203.794 349.856 204.941C349.266 206.088 348.401 207.121 347.316 207.977C345.457 209.457 343.058 210.37 340.505 210.568C340.029 210.602 339.549 210.602 339.072 210.568L259.102 209.218C256.036 209.191 253.104 208.161 250.93 206.348C248.756 204.536 247.512 202.084 247.462 199.514C247.456 198.265 247.754 197.029 248.338 195.88C248.923 194.731 249.78 193.694 250.859 192.833C253.079 191.063 256.039 190.094 259.102 190.133H261.823C261.261 188.478 260.973 186.766 260.97 185.045C260.965 182.585 261.56 180.15 262.717 177.89C263.874 175.63 265.57 173.591 267.7 171.899C269.579 170.392 271.759 169.172 274.14 168.295C277.225 167.168 280.565 166.616 283.929 166.676L290.723 166.797C294.95 166.869 299.076 167.892 302.67 169.758C306.264 171.624 309.194 174.266 311.155 177.406C313.114 176.625 315.265 176.241 317.434 176.285H319.189C322.828 176.317 326.31 177.537 328.893 179.687C331.476 181.837 332.956 184.747 333.019 187.799V188.352C333.018 189.403 332.833 190.449 332.471 191.456L339.089 191.564C342.162 191.599 345.098 192.636 347.274 194.455C349.45 196.275 350.695 198.733 350.745 201.309Z" fill="white"/>
<path d="M340.505 210.568C340.029 210.602 339.549 210.602 339.073 210.568L259.102 209.218C256.036 209.191 253.104 208.161 250.93 206.349C248.756 204.536 247.512 202.084 247.462 199.514C247.456 198.265 247.754 197.029 248.338 195.88C248.923 194.731 249.78 193.694 250.859 192.833C247.639 209.394 268.328 207.018 268.328 207.018H320.283L340.505 210.568Z" fill="url(#paint0_linear_108_311)"/>
<path d="M267.684 192.131L261.871 190.282C261.309 188.627 261.022 186.915 261.018 185.194C261.014 182.734 261.608 180.299 262.765 178.039C263.923 175.778 265.618 173.739 267.748 172.047C269.628 170.541 271.807 169.321 274.188 168.444C258.104 179.997 267.684 192.131 267.684 192.131Z" fill="url(#paint1_linear_108_311)"/>
<path opacity="0.23" d="M170.663 295.546C227.163 295.546 272.965 260.866 272.965 218.086C272.965 175.306 227.163 140.626 170.663 140.626C114.164 140.626 68.3619 175.306 68.3619 218.086C68.3619 260.866 114.164 295.546 170.663 295.546Z" fill="#30C1FF"/>
<path d="M297.679 205.25C297.706 223.233 290.723 240.732 277.795 255.082L277.585 255.324C263.418 270.977 243.075 281.898 220.189 286.138C197.304 290.377 173.365 287.658 152.65 278.467C131.935 269.276 115.791 254.211 107.103 235.962C98.4146 217.714 97.7473 197.47 105.22 178.847C112.693 160.225 127.819 144.435 147.897 134.299C167.975 124.162 191.698 120.339 214.828 123.513C237.958 126.686 258.99 136.648 274.167 151.621C289.343 166.594 297.677 185.602 297.679 205.25Z" fill="#30C1FF"/>
<path d="M167.073 164.503C161.647 166.379 155.658 166.824 150.087 168.363C144.516 169.901 138.93 173.006 137.497 177.811C136.756 180.227 137.142 182.913 135.726 185.099C133.842 188.041 129.43 189.148 126.758 191.578C121.67 196.275 125.019 204.332 131.234 207.963C137.448 211.594 145.386 212.147 152.824 213.214C154.86 213.35 156.8 213.994 158.395 215.063C162.726 218.531 157.928 224.808 159.763 229.586C160.794 232.285 163.837 234.134 165.221 236.725C167.878 241.665 163.853 247.118 161.196 252.058C156.405 261.07 155.972 271.29 159.989 280.564C159.804 280.788 159.599 281 159.377 281.198C148.781 277.301 139.078 271.884 130.702 265.191C122.539 255.594 116.083 245.134 116.759 233.635C117.13 227.399 119.609 221.379 120.076 215.171C120.849 205.088 116.502 194.142 122.395 185.342C125.615 180.47 131.894 175.125 128.384 170.401C122.185 171.157 115.504 171.278 109.82 169.469C116.794 157.29 127.214 146.725 140.173 138.693C153.132 130.662 168.237 125.409 184.171 123.39C190.29 138.048 185.427 158.024 167.073 164.503Z" fill="url(#paint2_linear_108_311)"/>
<path d="M297.679 205.25C297.685 210.491 297.098 215.719 295.924 220.866C293.298 222.656 290.839 224.61 288.566 226.711C280.757 234.377 279.067 245.013 277.795 255.055C277.795 255.271 277.795 255.486 277.714 255.689C277.714 255.554 277.714 255.432 277.585 255.298C276.964 252.719 275.623 250.3 273.673 248.239C271.451 246.227 267.507 245.229 264.802 246.808C263.514 244.108 262.22 241.432 260.922 238.777C252.871 238.777 244.564 238.777 236.996 236.388C229.429 233.999 223.166 229.424 217.113 224.956C217.907 217.215 217.735 209.425 216.597 201.714C240.113 199.575 261.865 190.248 277.698 175.516C263.538 174.924 249.498 177.961 237.447 184.222C234.871 185.572 232.263 187.083 229.252 187.299C227.345 187.339 225.442 187.12 223.617 186.651L204.152 182.508C201.721 172.007 210.399 161.466 221.556 156.269C229.928 152.382 240.088 153.138 248.122 149.737C253.628 147.415 255.238 143.353 260.052 140.37H260.149C271.843 148.106 281.295 157.963 287.795 169.2C294.295 180.437 297.674 192.762 297.679 205.25Z" fill="url(#paint3_linear_108_311)"/>
<path d="M229.445 188.473C228.866 190.066 228.318 191.929 229.445 193.265C229.999 193.836 230.729 194.27 231.555 194.52C232.516 194.905 233.586 195.059 234.646 194.967C235.706 194.874 236.714 194.537 237.56 193.994C238.444 193.183 239.069 192.199 239.379 191.132C240.884 187.26 241.962 183.279 242.599 179.241C242.721 178.87 242.721 178.479 242.599 178.108C242.348 177.718 241.944 177.413 241.456 177.244C238.896 176.097 234.887 175.179 233.406 177.716C231.587 180.982 230.734 185.018 229.445 188.473Z" fill="#FBC4D6"/>
<path d="M237.19 190.323C237.731 190.26 238.281 190.302 238.8 190.444C239.153 190.608 239.461 190.834 239.701 191.105L245.256 196.329C246.335 197.341 247.462 198.731 246.705 199.932C246.439 200.267 246.086 200.547 245.674 200.752C245.262 200.958 244.8 201.083 244.322 201.12C241.632 201.327 238.927 200.882 236.53 199.838C234.823 199.217 233.133 198.488 231.474 197.813C230.242 197.344 229.165 196.631 228.335 195.735C227.063 194.115 226.725 190.228 228.946 188.986C230.09 188.379 231.088 188.811 232.167 189.229C233.709 189.934 235.434 190.309 237.19 190.323Z" fill="#30C1FF"/>
<path d="M260.229 206.263C260.273 206.563 260.234 206.867 260.117 207.153C259.925 207.431 259.646 207.66 259.312 207.815C258.256 208.424 257.018 208.775 255.737 208.827C255.098 208.847 254.461 208.743 253.878 208.523C253.294 208.303 252.779 207.973 252.372 207.558C251.78 206.773 251.421 205.879 251.326 204.953C250.854 202.962 250.622 200.937 250.633 198.907C250.605 198.787 250.609 198.664 250.643 198.546C250.677 198.428 250.742 198.318 250.832 198.223C250.923 198.128 251.037 198.05 251.166 197.996C251.296 197.941 251.438 197.911 251.583 197.908C253.58 197.557 257.557 196.68 258.571 198.731C259.604 201.15 260.164 203.694 260.229 206.263Z" fill="#FBC4D6"/>
<path d="M268.682 206.06C270.398 206.138 272.093 206.41 273.721 206.87C274.531 207.105 275.274 207.476 275.906 207.961C276.537 208.447 277.043 209.035 277.392 209.691C277.717 210.333 277.757 211.051 277.505 211.715C276.949 212.701 275.972 213.477 274.768 213.888C269.046 216.438 262.59 217.601 256.124 217.249C254.464 217.305 252.844 216.822 251.599 215.9C250.701 214.785 250.281 213.448 250.408 212.107L250.183 205.763C251.64 205.818 253.062 206.155 254.337 206.748C256.719 207.423 257.653 205.804 259.617 205.399C262.177 204.899 266.074 205.844 268.682 206.06Z" fill="#30C1FF"/>
<path d="M237.19 190.323C237.731 190.26 238.281 190.302 238.8 190.444C239.153 190.608 239.461 190.834 239.701 191.105L245.256 196.329C246.335 197.341 247.462 198.731 246.705 199.932C246.439 200.267 246.086 200.547 245.674 200.752C245.262 200.958 244.8 201.083 244.322 201.12C241.632 201.327 238.927 200.882 236.53 199.838C234.823 199.217 233.133 198.488 231.474 197.813C230.242 197.344 229.165 196.631 228.335 195.735C227.063 194.115 226.725 190.228 228.946 188.986C230.09 188.379 231.088 188.811 232.167 189.229C233.709 189.934 235.434 190.309 237.19 190.323Z" fill="url(#paint4_linear_108_311)"/>
<path d="M268.682 206.06C270.398 206.138 272.093 206.41 273.721 206.87C274.531 207.105 275.274 207.476 275.906 207.961C276.537 208.447 277.043 209.035 277.392 209.691C277.717 210.333 277.757 211.051 277.505 211.715C276.949 212.701 275.972 213.477 274.768 213.888C269.046 216.438 262.59 217.601 256.124 217.249C254.464 217.305 252.844 216.822 251.599 215.9C250.701 214.785 250.281 213.448 250.408 212.107L250.183 205.763C251.64 205.818 253.062 206.155 254.337 206.748C256.719 207.423 257.653 205.804 259.617 205.399C262.177 204.899 266.074 205.844 268.682 206.06Z" fill="url(#paint5_linear_108_311)"/>
<path d="M176.958 137.333C173.495 137.081 170.01 137.126 166.558 137.468C166.106 137.487 165.668 137.603 165.286 137.805C165.066 137.979 164.89 138.188 164.768 138.42C164.646 138.652 164.581 138.902 164.577 139.155C164.094 143.069 167.797 146.47 171.79 148.536C182.593 154.15 196.214 153.934 208.145 157.606C209.283 157.858 210.294 158.412 211.027 159.185C211.524 160.022 211.768 160.949 211.735 161.884C212.266 167.162 215.76 171.913 216.919 177.109C218.079 182.305 216.839 187.745 217.789 192.981C221.701 189.486 228.367 188.932 232.279 185.477C235.95 182.292 236.674 177.541 237.222 173.141L238.703 161.074C238.978 160.204 238.864 159.28 238.384 158.475C237.904 157.67 237.09 157.039 236.095 156.701C218.481 147.159 197.84 138.845 176.958 137.333Z" fill="url(#paint6_linear_108_311)"/>
<path d="M248.186 136.118C249.814 136.392 251.322 137.031 252.549 137.967C253.808 139.437 254.381 141.242 254.159 143.042C254.121 155.849 251.233 168.538 245.642 180.456C245.59 180.875 245.416 181.277 245.135 181.626C244.854 181.976 244.476 182.262 244.033 182.461C243.589 182.659 243.095 182.763 242.592 182.765C242.09 182.766 241.595 182.664 241.15 182.467C237.802 181.71 234.503 180.809 231.265 179.768L235.644 155.473C235.853 154.799 235.808 154.087 235.515 153.435C235.192 152.973 234.739 152.583 234.195 152.301C229.2 149.255 223.924 146.547 218.417 144.203C214.021 142.34 208.982 140.154 207.791 136.213C207.543 135.539 207.493 134.826 207.645 134.133C207.796 133.44 208.144 132.787 208.66 132.231C209.356 131.658 210.176 131.2 211.075 130.881C213.989 129.68 217.66 128.182 221.009 128.425C223.698 128.654 224.728 129.95 226.966 130.908C233.181 133.5 241.44 134.472 248.186 136.118Z" fill="#282328"/>
<path d="M218.272 97.476C220.429 102.456 221.492 107.734 223.392 112.768C223.808 114.103 224.554 115.349 225.581 116.426C226.947 117.524 228.602 118.338 230.411 118.801C232.934 119.62 235.499 120.336 238.107 120.947C239.846 121.339 241.923 122.014 242.116 123.498C242.157 123.994 242.035 124.489 241.762 124.929C241.089 125.935 240.121 126.779 238.948 127.381C237.776 127.984 236.439 128.325 235.064 128.371C232.322 128.432 229.59 128.057 227.014 127.264C224.669 126.866 222.517 125.894 220.832 124.47C219.874 123.286 219.201 121.956 218.851 120.556C216.209 112.693 212.543 105.098 207.919 97.9079C206.536 96.009 205.454 93.9673 204.699 91.8342C203.637 88.109 203.621 79.2819 208.209 82.5212C211.912 85.1397 216.646 93.7778 218.272 97.476Z" fill="#FBC4D6"/>
<path d="M200.706 135.646C203.421 134.764 206.062 133.732 208.612 132.555C218.272 128.074 210.367 125.874 207.147 120.489C204.844 116.669 205.778 112.093 206.969 107.95C209.079 100.661 211.896 93.103 209.868 85.8281C209.614 84.6474 209.065 83.525 208.257 82.5348C207.667 81.9204 206.985 81.3717 206.229 80.9016C204.189 79.4249 201.842 78.2764 199.306 77.5139C194.476 76.1641 189.002 77.1494 184.413 79.0795C166.381 86.6649 162.533 105.817 163.257 121.136C163.45 125.388 164.239 129.883 167.508 133.135C170.776 136.388 175.397 137.63 180.13 138.116C187.127 138.715 194.192 137.867 200.706 135.646Z" fill="white"/>
<path d="M173.819 126.981C173.964 128.418 174.516 129.806 175.429 131.03C177.039 132.933 180.001 133.635 182.722 134.188L194.975 136.726C196.468 137.105 198.019 137.301 199.579 137.306C202.928 137.171 205.81 135.376 208.467 133.648C209.146 133.259 209.735 132.77 210.206 132.204C203.443 131.664 196.697 131.097 189.968 130.274C186.007 129.788 181.821 129.113 178.907 126.832C177.401 125.585 176.256 124.067 175.558 122.392C175.075 121.352 174.849 118.707 173.449 118.478C173.096 121.312 173.22 124.175 173.819 126.981Z" fill="url(#paint7_linear_108_311)"/>
<path d="M198.002 89.3777C198 89.8033 197.798 90.2111 197.438 90.5115C197.103 90.6767 196.712 90.7433 196.327 90.7005C195.065 90.6509 193.831 90.3752 192.707 89.892C191.583 89.4088 190.596 88.7292 189.812 87.8992C189.028 87.0691 188.465 86.1078 188.161 85.08C187.857 84.0522 187.82 82.9818 188.052 81.9408C188.341 80.5911 189.034 79.4304 189.468 78.1617C190.322 75.6242 190.177 72.7628 192.093 70.6708C193.751 73.8524 195.644 76.9447 197.76 79.9298C198.301 80.5234 198.677 81.2106 198.861 81.9414C199.044 82.6723 199.031 83.4283 198.823 84.1544L198.002 89.3777Z" fill="#FBC4D6"/>
<path d="M198.951 82.8451L198.227 86.8942C198.227 86.8942 189.935 83.4525 191.014 77.0684C192.093 70.6842 198.951 82.8451 198.951 82.8451Z" fill="url(#paint8_linear_108_311)"/>
<path d="M208.644 78.904C208.219 80.2011 207.318 81.3532 206.068 82.1973C205.472 82.5359 204.806 82.7785 204.104 82.9126C201.638 83.3136 199.085 83.0504 196.809 82.1606C194.533 81.2709 192.651 79.8002 191.433 77.9592C190.285 76.0943 189.63 74.0437 189.513 71.9473C189.396 69.851 189.821 67.7582 190.757 65.8118C191.523 63.677 193.257 61.8792 195.587 60.8044C196.86 60.3833 198.239 60.2332 199.598 60.3674C200.958 60.5017 202.257 60.9161 203.379 61.5737C206.429 63.3588 208.786 65.8556 210.157 68.7542C211.333 71.71 209.852 76.0831 208.644 78.904Z" fill="#FBC4D6"/>
<path d="M245.047 153.084C247.11 155.287 248.741 157.752 249.877 160.386C256.209 173.187 260.324 186.681 262.097 200.459C256.927 200.999 251.698 200.999 246.528 200.459C246.123 190.732 244.334 181.081 241.199 171.71C240.645 169.693 239.692 167.768 238.381 166.014C236.079 163.22 232.295 161.601 228.721 160.089C220.358 156.682 211.616 153.97 202.622 151.991C198.823 151.113 194.991 150.304 191.256 149.291C188.116 148.4 179.309 145.134 176.765 143.366C175.432 142.519 174.317 141.454 173.487 140.237C172.657 139.019 172.129 137.673 171.935 136.28C171.935 136.982 196.472 138.386 198.227 138.224C204.136 137.697 211.107 134.863 216.936 136.874C221.492 138.44 225.662 141.706 229.816 143.96C234.855 146.605 241.006 149.17 245.047 153.084Z" fill="#473F47"/>
<path d="M218.159 152.045L188.213 139.776L223.327 127.291L253.29 138.264L218.159 152.045Z" fill="#FFB930"/>
<path d="M172.547 94.4392C172.547 94.9116 172.402 95.3705 172.338 95.7889C171.452 102.699 172.257 109.475 172.563 116.345C172.756 120.597 173.416 128.695 178.81 130.868C188.889 134.917 208.338 133.378 208.338 133.378C210.593 133.075 212.898 133.153 215.116 133.608C216.324 133.918 217.435 134.445 218.61 134.822C222.86 136.172 227.61 135.497 232.086 134.822C232.857 134.746 233.602 134.539 234.276 134.215C235.057 133.633 235.533 132.818 235.603 131.944C235.672 131.07 235.328 130.208 234.646 129.545C233.193 128.265 231.303 127.393 229.236 127.048C223.584 125.501 217.529 125.305 211.751 126.481C211.013 126.69 210.26 126.861 209.497 126.994C208.603 127.116 207.698 127.17 206.792 127.156H199.934C192.044 127.156 184.606 127.237 183.415 119.503C182.975 116.639 182.888 113.744 183.157 110.865C183.624 105.669 185.25 100.513 184.912 95.3165C184.892 93.6684 184.4 92.0485 183.479 90.5925C183.012 89.8695 182.332 89.2591 181.503 88.8195C180.674 88.38 179.725 88.1261 178.746 88.082C177.731 88.1455 176.754 88.4273 175.908 88.9002C175.062 89.3731 174.375 90.0211 173.916 90.7814C173.203 91.9225 172.739 93.1613 172.547 94.4392Z" fill="#FBC4D6"/>
<path d="M265.623 113.51L223.762 131.367L218.159 152.045L253.29 138.264L265.623 113.51Z" fill="#FFB930"/>
<path d="M210.705 71.4536C210.659 70.1686 210.091 68.9353 209.095 67.9579C208.589 67.4659 207.991 67.0465 207.324 66.7161C206.39 66.2572 206.164 66.2168 205.553 66.9591C204.764 67.9174 204.506 69.0376 203.782 70.0364C202.989 71.1442 201.883 72.0713 200.562 72.7358C199.076 73.5083 197.349 73.8892 195.603 73.8291C194.909 73.7412 194.203 73.7412 193.51 73.8291C193.277 73.8661 193.056 73.9457 192.864 74.0624C192.672 74.179 192.513 74.3298 192.399 74.504C192.233 75.0088 192.173 75.534 192.222 76.0561C192.077 77.4058 190.483 78.3641 189.597 79.5384C188.712 80.7126 188.454 82.4538 187.391 83.709C187.194 83.9608 186.922 84.1655 186.603 84.3029C185.846 84.5728 184.993 84.2219 184.204 84.1004C181.869 83.763 179.985 85.5851 177.989 86.6918C173.98 88.9054 168.731 88.3385 163.998 87.6771C162.549 87.5302 161.136 87.1931 159.812 86.6783C158.381 85.9707 157.111 85.0569 156.06 83.9789C154.305 82.3593 152.566 80.7126 150.844 79.066C150.204 78.5388 149.695 77.9103 149.346 77.2169C149.162 76.7333 149.113 76.2208 149.202 75.7187C149.359 74.7814 149.69 73.8705 150.184 73.0193C151.439 70.6573 152.905 68.0928 155.738 67.0266C158.572 65.9603 161.921 66.7566 165.044 66.4867C165.425 66.486 165.796 66.387 166.107 66.2033C166.356 65.9678 166.532 65.6853 166.622 65.3799C167.926 61.7492 169.552 57.8081 173.449 55.932C176.451 54.7229 179.835 54.3494 183.109 54.8657C186.35 55.3791 189.656 55.5379 192.946 55.3381C194.556 55.1221 196.166 54.6767 197.776 54.4068C201.541 53.7055 205.482 54.1857 208.853 55.7565C210.517 56.5864 211.909 57.7498 212.903 59.1421C213.898 60.5344 214.465 62.112 214.553 63.7333C214.488 64.3665 214.488 65.0032 214.553 65.6364C214.665 66.2303 214.971 66.8106 215.084 67.4045C215.15 67.9178 215.085 68.437 214.895 68.9279C214.704 69.4189 214.392 69.8704 213.978 70.2529C213.565 70.6354 213.059 70.9401 212.495 71.1471C211.931 71.354 211.321 71.4585 210.705 71.4536Z" fill="#FF681C"/>
<path d="M171.082 98.2724C170.585 102.092 170.532 105.943 170.921 109.772C170.901 110.104 171.002 110.434 171.211 110.717C171.553 111.031 172.025 111.224 172.531 111.257C175.138 111.663 177.784 111.876 180.436 111.891C180.808 111.991 181.202 112.02 181.589 111.978C181.977 111.935 182.348 111.822 182.677 111.645C183.006 111.469 183.285 111.233 183.493 110.956C183.701 110.679 183.834 110.367 183.882 110.042C185.331 104.967 186.764 99.892 187.858 94.7497C188.293 92.6846 188.599 90.3631 187.118 88.6894C184.976 86.26 179.196 85.99 176.411 87.7582C173.046 89.9312 171.613 95.0061 171.082 98.2724Z" fill="white"/>
<path d="M216.646 91.7937L221.202 100.945C221.427 101.301 221.517 101.706 221.46 102.106C221.344 102.434 221.121 102.728 220.816 102.956C218.59 104.929 215.948 106.54 213.023 107.707C210.326 105.687 208.137 103.237 206.583 100.499C205.07 97.2466 205.408 93.6293 205.858 90.1606C206.132 87.9606 206.036 80.8881 210.495 83.628C213.603 85.5041 215.245 88.9729 216.646 91.7937Z" fill="white"/>
<path d="M134.228 177.635C134.23 178.883 133.928 180.117 133.341 181.264C132.754 182.41 131.895 183.444 130.815 184.303C128.954 185.781 126.557 186.693 124.005 186.894C123.527 186.915 123.049 186.915 122.572 186.894L42.6015 185.544C39.5313 185.517 36.5953 184.486 34.4182 182.671C32.2412 180.856 30.995 178.4 30.9448 175.827C30.9434 174.579 31.2453 173.344 31.8322 172.198C32.419 171.052 33.2785 170.018 34.3581 169.159C35.4528 168.277 36.7444 167.584 38.1589 167.121C39.5735 166.658 41.0832 166.433 42.6015 166.46H45.3224C44.752 164.801 44.4647 163.084 44.4691 161.358C44.4636 158.898 45.0578 156.463 46.2151 154.202C47.3723 151.942 49.0683 149.903 51.199 148.212C53.0763 146.706 55.2566 145.49 57.6391 144.621C60.7236 143.493 64.0637 142.94 67.4281 143.002L74.2225 143.123C78.423 143.189 82.527 144.191 86.1122 146.027C89.6975 147.863 92.6346 150.467 94.6216 153.57C96.5859 152.801 98.7333 152.418 100.901 152.45H102.656C106.294 152.488 109.772 153.713 112.351 155.865C114.93 158.017 116.407 160.926 116.47 163.976V164.53C116.476 165.576 116.297 166.618 115.938 167.62L122.556 167.742C125.665 167.767 128.636 168.82 130.822 170.674C133.008 172.527 134.233 175.029 134.228 177.635Z" fill="white"/>
<path d="M124.005 186.894C123.527 186.915 123.049 186.915 122.572 186.894L42.6015 185.545C39.5313 185.517 36.5953 184.486 34.4182 182.671C32.2412 180.856 30.995 178.4 30.9448 175.827C30.9434 174.579 31.2453 173.344 31.8322 172.198C32.419 171.052 33.2785 170.018 34.3581 169.159C31.2185 185.706 51.8269 183.344 51.8269 183.344H103.783L124.005 186.894Z" fill="url(#paint9_linear_108_311)"/>
<path d="M51.1185 168.457L45.3224 166.608C44.752 164.95 44.4647 163.232 44.469 161.506C44.4636 159.046 45.0577 156.611 46.215 154.351C47.3723 152.09 49.0683 150.051 51.199 148.36C53.0763 146.854 55.2566 145.639 57.6391 144.77C41.5871 156.323 51.1185 168.457 51.1185 168.457Z" fill="url(#paint10_linear_108_311)"/>
<path d="M345.175 99.1901C345.176 100.439 344.872 101.675 344.283 102.821C343.693 103.968 342.829 105.001 341.745 105.858C339.878 107.336 337.475 108.248 334.919 108.449C334.442 108.483 333.963 108.483 333.486 108.449L253.532 107.099C250.488 107.065 247.578 106.044 245.413 104.249C243.249 102.455 241.998 100.027 241.923 97.476C241.907 96.2159 242.2 94.9664 242.784 93.8053C243.368 92.6442 244.232 91.5965 245.32 90.7274C247.548 88.9584 250.512 87.9896 253.58 88.028H256.285C255.722 86.3729 255.435 84.6606 255.431 82.9396C255.427 80.4798 256.022 78.045 257.179 75.7845C258.336 73.5241 260.031 71.4854 262.161 69.7935C264.039 68.2846 266.219 67.0647 268.602 66.1897C271.685 65.0602 275.026 64.5075 278.39 64.5701L285.185 64.6916C289.385 64.7566 293.489 65.7603 297.072 67.5992C300.655 69.438 303.588 72.0453 305.568 75.1518C307.528 74.3721 309.678 73.9884 311.847 74.0315H313.602C317.242 74.0627 320.723 75.2832 323.306 77.4333C325.889 79.5835 327.369 82.4936 327.432 85.5446V86.0979C327.431 87.1495 327.246 88.1954 326.885 89.2023L333.502 89.3102C336.605 89.3421 339.569 90.3963 341.753 92.2449C343.937 94.0935 345.166 96.5882 345.175 99.1901Z" fill="white"/>
<path d="M334.935 108.449C334.458 108.483 333.979 108.483 333.502 108.449L253.548 107.099C250.501 107.069 247.587 106.049 245.419 104.254C243.251 102.459 241.998 100.029 241.923 97.476C241.907 96.2158 242.2 94.9663 242.784 93.8053C243.368 92.6442 244.232 91.5965 245.32 90.7274C242.1 107.288 262.789 104.913 262.789 104.913H314.745L334.935 108.449Z" fill="url(#paint11_linear_108_311)"/>
<path d="M262.065 90.0121L256.253 88.163C255.69 86.5079 255.403 84.7956 255.399 83.0746C255.395 80.6147 255.989 78.18 257.146 75.9195C258.304 73.659 259.999 71.6204 262.129 69.9284C264.007 68.4196 266.187 67.1997 268.569 66.3247C252.533 77.8782 262.065 90.0121 262.065 90.0121Z" fill="url(#paint12_linear_108_311)"/>
<path d="M193.622 73.8561C193.389 73.8931 193.169 73.9727 192.977 74.0894C192.785 74.2061 192.626 74.3568 192.511 74.531C192.345 75.0358 192.285 75.5611 192.334 76.0831C192.189 77.4329 190.595 78.3911 189.71 79.5654C188.824 80.7396 188.567 82.4808 187.504 83.736C187.307 83.9878 187.035 84.1925 186.715 84.3299C185.959 84.5998 185.105 84.2489 184.316 84.1274C181.982 83.79 180.098 85.6121 178.102 86.7189C174.093 88.9324 168.844 88.3655 164.11 87.7041C162.621 87.5585 161.169 87.2121 159.812 86.6784C158.381 85.9707 157.111 85.0569 156.06 83.9789C154.305 82.3593 152.566 80.7127 150.844 79.066C150.204 78.5388 149.695 77.9103 149.346 77.2169C149.162 76.7334 149.113 76.2208 149.202 75.7187C149.952 75.3387 150.732 75.0006 151.536 74.7064C154.004 73.596 156.889 73.33 159.586 73.9641C161.744 74.666 163.273 76.2721 165.125 77.4194C167.707 78.935 170.848 79.6314 173.986 79.3841C177.124 79.1368 180.055 77.962 182.255 76.0696C183.067 75.1735 184.02 74.3744 185.089 73.6942C187.005 72.8169 190.901 72.9518 193.622 73.8561Z" fill="url(#paint13_linear_108_311)"/>
</g>
<defs>
<linearGradient id="paint0_linear_108_311" x1="297.26" y1="240.667" x2="292.125" y2="161.757" gradientUnits="userSpaceOnUse">
<stop offset="0.01"/>
<stop offset="0.13" stop-opacity="0.69"/>
<stop offset="0.25" stop-opacity="0.32"/>
<stop offset="1" stop-opacity="0"/>
</linearGradient>
<linearGradient id="paint1_linear_108_311" x1="224.825" y1="198.259" x2="301.383" y2="155.767" gradientUnits="userSpaceOnUse">
<stop offset="0.01"/>
<stop offset="0.13" stop-opacity="0.69"/>
<stop offset="0.25" stop-opacity="0.32"/>
<stop offset="1" stop-opacity="0"/>
</linearGradient>
<linearGradient id="paint2_linear_108_311" x1="161.309" y1="345.998" x2="137.491" y2="-156.826" gradientUnits="userSpaceOnUse">
<stop offset="0.01" stop-color="#4CDD1A"/>
<stop offset="0.13" stop-color="#50CB25" stop-opacity="0.69"/>
<stop offset="0.25" stop-color="#42FF00" stop-opacity="0.32"/>
<stop offset="1" stop-opacity="0"/>
</linearGradient>
<linearGradient id="paint3_linear_108_311" x1="260.841" y1="341.287" x2="237.012" y2="-161.55" gradientUnits="userSpaceOnUse">
<stop offset="0.01" stop-color="#70FF63"/>
<stop offset="0.13" stop-opacity="0.69"/>
<stop offset="0.25" stop-color="#13E800" stop-opacity="0.32"/>
<stop offset="1" stop-opacity="0"/>
</linearGradient>
<linearGradient id="paint4_linear_108_311" x1="245.755" y1="191.362" x2="217.152" y2="208.289" gradientUnits="userSpaceOnUse">
<stop offset="0.01"/>
<stop offset="0.13" stop-opacity="0.69"/>
<stop offset="0.25" stop-opacity="0.32"/>
<stop offset="1" stop-opacity="0"/>
</linearGradient>
<linearGradient id="paint5_linear_108_311" x1="270.968" y1="225.145" x2="257.678" y2="189.478" gradientUnits="userSpaceOnUse">
<stop offset="0.01"/>
<stop offset="0.13" stop-opacity="0.69"/>
<stop offset="0.25" stop-opacity="0.32"/>
<stop offset="1" stop-opacity="0"/>
</linearGradient>
<linearGradient id="paint6_linear_108_311" x1="241.875" y1="111.608" x2="152.653" y2="259.119" gradientUnits="userSpaceOnUse">
<stop offset="0.01"/>
<stop offset="0.13" stop-opacity="0.69"/>
<stop offset="0.25" stop-opacity="0.32"/>
<stop offset="1" stop-opacity="0"/>
</linearGradient>
<linearGradient id="paint7_linear_108_311" x1="214.15" y1="98.0429" x2="159.814" y2="192.455" gradientUnits="userSpaceOnUse">
<stop offset="0.01"/>
<stop offset="0.13" stop-opacity="0.69"/>
<stop offset="0.25" stop-opacity="0.32"/>
<stop offset="1" stop-opacity="0"/>
</linearGradient>
<linearGradient id="paint8_linear_108_311" x1="200.417" y1="71.1161" x2="189.466" y2="99.6604" gradientUnits="userSpaceOnUse">
<stop offset="0.01"/>
<stop offset="0.13" stop-opacity="0.69"/>
<stop offset="0.25" stop-opacity="0.32"/>
<stop offset="1" stop-opacity="0"/>
</linearGradient>
<linearGradient id="paint9_linear_108_311" x1="80.7592" y1="216.993" x2="75.6131" y2="138.069" gradientUnits="userSpaceOnUse">
<stop offset="0.01"/>
<stop offset="0.13" stop-opacity="0.69"/>
<stop offset="0.25" stop-opacity="0.32"/>
<stop offset="1" stop-opacity="0"/>
</linearGradient>
<linearGradient id="paint10_linear_108_311" x1="8.30775" y1="174.571" x2="84.8866" y2="132.094" gradientUnits="userSpaceOnUse">
<stop offset="0.01"/>
<stop offset="0.13" stop-opacity="0.69"/>
<stop offset="0.25" stop-opacity="0.32"/>
<stop offset="1" stop-opacity="0"/>
</linearGradient>
<linearGradient id="paint11_linear_108_311" x1="291.705" y1="138.548" x2="286.559" y2="59.6375" gradientUnits="userSpaceOnUse">
<stop offset="0.01"/>
<stop offset="0.13" stop-opacity="0.69"/>
<stop offset="0.25" stop-opacity="0.32"/>
<stop offset="1" stop-opacity="0"/>
</linearGradient>
<linearGradient id="paint12_linear_108_311" x1="219.254" y1="96.1398" x2="295.812" y2="53.6479" gradientUnits="userSpaceOnUse">
<stop offset="0.01"/>
<stop offset="0.13" stop-opacity="0.69"/>
<stop offset="0.25" stop-opacity="0.32"/>
<stop offset="1" stop-opacity="0"/>
</linearGradient>
<linearGradient id="paint13_linear_108_311" x1="212.749" y1="103.401" x2="130.4" y2="28.5056" gradientUnits="userSpaceOnUse">
<stop offset="0.01"/>
<stop offset="0.13" stop-opacity="0.69"/>
<stop offset="0.25" stop-opacity="0.32"/>
<stop offset="1" stop-opacity="0"/>
</linearGradient>
<clipPath id="clip0_108_311">
<rect width="443" height="311" fill="white"/>
</clipPath>
</defs>
</svg>
